<?xml version="1.0" standalone="no"?>
<!DOCTYPE svg PUBLIC "-//W3C//DTD SVG 1.1//EN" "http://www.w3.org/Graphics/SVG/1.1/DTD/svg11.dtd" >
<svg xmlns="http://www.w3.org/2000/svg">
<metadata></metadata>
<defs>
<font id="blurlight" horiz-adv-x="950" >
<font-face units-per-em="2048" ascent="1638" descent="-410" />
<missing-glyph horiz-adv-x="819" />
<glyph horiz-adv-x="0" />
<glyph horiz-adv-x="0" />
<glyph unicode="&#xd;" horiz-adv-x="512" />
<glyph unicode=" " horiz-adv-x="819" d="M0 0z" />
<glyph unicode="!" horiz-adv-x="311" d="M86 1118q-2 49 7 78t21.5 43t28 18.5t25.5 4.5q47 0 64.5 -33t17.5 -94q0 -109 -4 -176.5t-8 -102.5q-2 -39 -9.5 -88t-16.5 -91t-19.5 -70.5t-20.5 -28.5q-14 0 -28.5 47t-27 108.5t-19.5 120.5t-7 84zM90 70q0 37 19.5 57t54.5 20q82 1 82 -77q0 -47 -20.5 -66.5 t-57.5 -19.5q-35 0 -56.5 21.5t-21.5 64.5z" />
<glyph unicode="&#x22;" horiz-adv-x="679" d="M86 862v271q0 43 9 82.5t40 39.5q29 0 39 -36.5t10 -90.5v-266q0 -41 -10 -73.5t-39 -32.5t-39 31.5t-10 74.5zM520 862v271q0 43 9.5 82.5t39.5 39.5q29 0 39 -36.5t10 -90.5v-266q0 -41 -10 -73.5t-39 -32.5t-39 31.5t-10 74.5z" />
<glyph unicode="#" horiz-adv-x="946" d="M111 412q0 27 23.5 43t51 37.5t50 57.5t22.5 99q0 45 -14.5 73t-30.5 46t-30.5 33.5t-14.5 36.5q0 25 18.5 40t43 33.5t50 43t39.5 67.5q10 29 16.5 58.5t12.5 55t14.5 42t22.5 16.5t12 -45t6.5 -98.5t39 -98.5t106.5 -45q72 0 105.5 44t49 97.5t23.5 97.5t27 44 q16 0 18 -19.5t2 -66.5q0 -68 15.5 -105.5t34 -61.5t33.5 -40t15 -43q0 -23 -22.5 -40t-50 -38.5t-51 -55.5t-23.5 -91q0 -49 14.5 -79t30.5 -50.5t30.5 -37t14.5 -38.5q0 -18 -14.5 -30.5t-35 -27t-43 -33t-38.5 -48.5q-20 -37 -29.5 -74t-15.5 -67.5t-13.5 -49 t-23.5 -18.5q-10 0 -13 16.5t-3 57.5q0 35 -6.5 71.5t-22.5 67t-44 50t-71 19.5q-76 2 -110.5 -42t-51 -97t-23.5 -98t-28 -45q-16 0 -18 25.5t-2 93.5q0 51 -15.5 82.5t-34 53t-33.5 40t-15 41.5zM348 629q0 -61 38 -106.5t106 -45.5q35 0 61.5 16.5t45.5 41t29.5 53 t10.5 53.5t-9 51.5t-26.5 48t-43 34.5t-60.5 13q-72 0 -112 -49t-40 -110z" />
<glyph unicode="$" horiz-adv-x="1056" d="M86 952q0 45 9 91.5t40 92.5t88.5 89t153.5 80q41 16 64.5 45.5t40 59.5t28.5 52.5t27 22.5q20 0 29 -19.5t21.5 -47t37 -57t75.5 -52.5q33 -14 65 -25.5t57.5 -24t42 -25.5t16.5 -32q0 -43 -33 -62.5t-70 -19.5q-14 0 -38.5 5t-54.5 11.5t-62.5 11.5t-61.5 5 q-115 0 -172 -51t-57 -113q0 -43 19.5 -76.5t62.5 -62.5t114.5 -56.5t176.5 -58.5q133 -41 218 -123t85 -217q0 -127 -43 -200.5t-101.5 -116.5t-121 -68.5t-103.5 -56.5q-20 -16 -33.5 -41t-23 -48.5t-19.5 -40t-26 -13.5q-14 2 -23.5 15t-19 31.5t-21.5 41t-31 43.5 q-27 27 -83 46t-113.5 37.5t-100.5 42t-43 62.5q0 25 28 53.5t71 28.5q25 0 56.5 -12.5t70.5 -26.5t86 -26.5t102 -12.5q53 0 99.5 16.5t82 44t56 67.5t20.5 85q0 29 -12 62.5t-44 67.5t-85 65.5t-137 54.5q-137 37 -218 78t-124 86t-55.5 93t-12.5 99z" />
<glyph unicode="%" horiz-adv-x="1449" d="M33 981q0 78 22.5 138.5t58.5 101.5t82 62.5t93 21.5q39 0 80 -13.5t75.5 -48.5t57 -95.5t22.5 -154.5q0 -154 -64.5 -242.5t-176.5 -88.5q-70 0 -117 29.5t-77 75.5t-43 102.5t-13 111.5zM147 981q0 -80 40 -138.5t96 -58.5q61 0 100 55.5t39 141.5q0 78 -37 137.5 t-98 59.5t-100.5 -53.5t-39.5 -143.5zM410 72q-20 0 8 53l553 1049q12 23 21 36t20 13q16 0 8 -24.5t-21 -49.5l-557 -1040q-10 -16 -16 -26.5t-16 -10.5zM918 297q0 86 19 147.5t53 100.5t77 57.5t88 18.5q111 0 178.5 -85t67.5 -239q0 -141 -62.5 -232.5t-167.5 -91.5 q-127 0 -190 86t-63 238zM1020 293q0 -80 40 -136.5t95 -56.5q66 0 102.5 52.5t36.5 144.5q0 78 -37.5 135t-97.5 57q-59 0 -99 -47t-40 -149z" />
<glyph unicode="&#x26;" horiz-adv-x="1265" d="M98 342q0 63 11.5 107.5t33 81t53 68.5t74.5 71q29 27 52.5 47t39 41.5t23.5 47t8 60.5q0 53 -12 97.5t-12 91.5t16 91t50 77.5t87 55t129 21.5q129 0 208 -62t79 -167q0 -31 -4 -52.5t-14.5 -43t-29 -46t-46.5 -59.5q-18 -20 -37 -39.5t-34 -40t-25.5 -44t-10.5 -56.5 q0 -45 15.5 -87t42 -73.5t60.5 -50t71 -18.5q25 0 47 10t43.5 22.5t40 22.5t33.5 10q25 0 43 -9t18 -44q0 -23 -9 -49.5t-19.5 -54t-19.5 -52t-9 -45.5q0 -47 12 -77.5t16 -36.5q10 -16 27.5 -31.5t35 -30t31 -28t13.5 -29.5q0 -25 -19.5 -38t-54.5 -7q-33 0 -72 8 t-74.5 18.5t-66.5 18.5t-49 8q-35 0 -71 -10t-76.5 -22.5t-91.5 -22.5t-117 -10q-98 0 -179.5 24.5t-138.5 70.5t-89 113.5t-32 151.5zM279 371q0 -61 20 -113.5t56 -91.5t86.5 -60.5t107.5 -21.5q92 0 156.5 48t64.5 116q0 18 -3 36.5t-12.5 43t-27.5 58.5t-47 83 q-31 53 -80 92t-117 39q-33 0 -69.5 -16.5t-66.5 -47t-49 -72.5t-19 -93zM516 1055q0 -55 38 -99.5t93 -44.5q61 0 104.5 43t43.5 105q0 55 -42 97t-98 42q-55 0 -97 -44t-42 -99z" />
<glyph unicode="'" horiz-adv-x="225" d="M66 848v319q0 37 13 61.5t32 24.5q18 0 31.5 -22.5t13.5 -63.5v-319q0 -37 -11 -59.5t-34 -22.5t-34 22.5t-11 59.5z" />
<glyph unicode="(" horiz-adv-x="614" d="M74 578q0 190 56 339.5t127 252t135.5 156.5t82.5 54q25 0 28 -14t-4 -33.5t-19.5 -40t-20.5 -35.5q-16 -27 -49 -82t-65 -134.5t-55.5 -181t-23.5 -220.5q0 -252 57.5 -426t139.5 -291q16 -23 28.5 -45t17.5 -41.5t-1 -32t-29 -12.5q-20 0 -85.5 53.5t-136.5 154.5 t-127 246.5t-56 332.5z" />
<glyph unicode=")" horiz-adv-x="589" d="M98 -179.5q-6 17.5 13 48.5q59 98 101 180t68.5 161t39 161t12.5 178v146.5t-16.5 158.5t-58.5 190.5t-126 241.5q-25 41 -27 63.5t27 22.5t94.5 -63.5t133 -170t118.5 -244.5t51 -288q0 -203 -55 -353.5t-126 -250.5t-135.5 -149.5t-84.5 -49.5q-23 0 -29 17.5z" />
<glyph unicode="*" horiz-adv-x="573" d="M96 1075q-4 12 0 27q6 25 35 36t59 29q16 10 28.5 24.5t24 28t22.5 23.5t24 10q14 0 22 -7t16.5 -17t19 -23.5t28.5 -25.5q37 -25 70.5 -35t39.5 -39q4 -14 -1 -23.5t-12 -20.5t-16.5 -25.5t-15.5 -37.5q-12 -45 -7 -70.5t-17 -43.5q-12 -8 -23.5 -8t-24 3t-28.5 8t-39 5 q-45 0 -76.5 -13.5t-54.5 5.5q-18 16 -17 37.5t-12 64.5q-6 23 -15 37t-17.5 26.5t-12.5 24.5z" />
<glyph unicode="+" horiz-adv-x="1060" d="M78 637q0 41 32.5 65.5t143.5 24.5q35 0 81 17.5t75 48.5q31 35 38 73.5t7 106.5q0 18 4 40.5t13 43t24.5 34t40.5 13.5q33 0 50 -17.5t26.5 -47t11.5 -66.5t2 -78q0 -25 16 -57.5t45 -61.5q18 -16 42 -26.5t48.5 -15.5t45 -6t32.5 -1q74 0 111 -25.5t37 -60.5 q0 -47 -49.5 -66.5t-127.5 -19.5q-37 0 -74.5 -10t-80.5 -51q-18 -18 -33.5 -66.5t-15.5 -126.5q0 -47 -18.5 -83t-67.5 -36q-27 0 -42.5 14.5t-24.5 38t-12 53t-3 58.5t-11.5 79t-66.5 97q-31 25 -80 31t-84 6q-55 0 -95 17.5t-40 60.5z" />
<glyph unicode="," horiz-adv-x="360" d="M72 100q0 66 28.5 92.5t77.5 26.5q72 0 95.5 -34.5t23.5 -100.5v-123q0 -82 -26.5 -139.5t-59.5 -90t-59.5 -39.5t-26.5 15q0 8 6 25.5t12.5 38t12.5 40t6 31.5q0 37 -14.5 63.5t-31 54.5t-30.5 60.5t-14 79.5z" />
<glyph unicode="-" horiz-adv-x="503" d="M86 575q0 78 94 78h156q102 0 102 -78q0 -43 -28.5 -60t-81.5 -17h-135q-106 0 -107 77z" />
<glyph unicode="." horiz-adv-x="376" d="M88 106q0 66 26.5 88.5t75.5 22.5q53 0 80 -25t27 -86t-22.5 -83.5t-75.5 -22.5t-82 20.5t-29 85.5z" />
<glyph unicode="/" horiz-adv-x="806" d="M75 -23.5q-3 56.5 31 136.5l443 1073q25 61 46 96t39.5 51.5t34 20.5t27.5 4t28.5 -5t26 -21.5t9.5 -48.5t-23 -85l-450 -1098q-43 -109 -78 -144.5t-78 -35.5q-53 0 -56 56.5z" />
<glyph unicode="0" horiz-adv-x="970" d="M78 616q0 133 26.5 249t80 201t132 133t183.5 48q178 0 289.5 -152.5t111.5 -453.5q0 -180 -31.5 -306t-86 -205t-126 -113.5t-149.5 -34.5q-139 0 -224 66.5t-131.5 164.5t-60.5 207.5t-14 195.5zM217 600q0 -270 76 -393t199 -123q129 0 203.5 131t74.5 397 q0 254 -66.5 391.5t-211.5 137.5q-123 0 -199 -134.5t-76 -406.5z" />
<glyph unicode="1" horiz-adv-x="579" d="M33 1018q0 45 19.5 67.5t47 37t59 27.5t56.5 40q18 18 27.5 28.5t16.5 19.5t16.5 18.5t25.5 23.5q23 18 49.5 27.5t42.5 9.5q47 0 69.5 -24.5t31 -63.5t8.5 -87v-95v-869q0 -117 -25.5 -165t-83.5 -48q-45 0 -73.5 8.5t-44 31t-20.5 64.5t-5 109v592q0 59 -7 91 t-20.5 47.5t-34 18.5t-49.5 3q-106 0 -106 88z" />
<glyph unicode="2" horiz-adv-x="933" d="M106 70q0 29 9.5 50t35 49t71.5 67.5t122 103.5q2 2 27.5 23.5t63.5 57.5t81 81t78 92q53 72 77.5 143.5t24.5 143.5q0 117 -55 189.5t-141 72.5q-80 0 -118 -38t-59.5 -83t-41 -83t-64.5 -38h-19.5t-27.5 6t-24.5 20.5t-10.5 43.5q0 49 26.5 100t75 94t115 70t148.5 27 q84 0 153.5 -21.5t121.5 -63.5t81 -104.5t29 -146.5q0 -162 -66 -275q-16 -29 -36.5 -56.5t-49.5 -57.5q-8 -8 -17 -16.5t-24.5 -23t-41 -37t-68.5 -63.5q-82 -82 -82 -139q0 -80 60.5 -109.5t201.5 -29.5q59 0 84.5 -18.5t25.5 -34.5q0 -10 -3 -22.5t-18 -22t-49 -15.5 t-93 -6h-467q-72 0 -104 19.5t-32 50.5z" />
<glyph unicode="3" horiz-adv-x="983" d="M106 254q0 37 20.5 49t45.5 12q47 0 69.5 -35.5t49 -78.5t69.5 -79t127 -36q41 0 84 17.5t77 51t55.5 81t21.5 104.5q0 41 -20.5 99.5t-57.5 92.5q-33 33 -56.5 48.5t-36.5 24.5t-19.5 16.5t-6.5 21.5q0 23 8.5 38t23.5 28.5t34.5 29t40.5 35.5q25 25 43 73t18 79 q0 49 -18.5 89t-46 67.5t-62 42t-69.5 14.5q-61 0 -97 -23.5t-63 -52.5t-51.5 -52.5t-63.5 -23.5q-29 0 -49 4t-20 41q0 33 24.5 72t70.5 72.5t112.5 57t152.5 23.5q80 0 146.5 -19t115.5 -55t76 -86.5t27 -109.5q0 -74 -16.5 -118t-35 -76.5t-35 -61.5t-16.5 -72 q0 -35 23.5 -69.5t52.5 -73.5t52.5 -83t23.5 -97q0 -90 -32 -157.5t-90 -113t-140 -68t-181 -22.5q-82 0 -152.5 18.5t-120.5 54.5t-79 88t-29 118z" />
<glyph unicode="4" horiz-adv-x="1064" d="M98 397q0 55 37 114.5t107 164.5l307 442q41 59 80 91t100 32q55 0 83 -32.5t28 -131.5v-418q0 -45 5 -76.5t14 -53t22.5 -39t27.5 -35.5q14 -14 29.5 -25.5t29 -22t22.5 -22.5t9 -29q0 -25 -10 -37t-27.5 -24t-38 -28.5t-42.5 -49.5q-20 -31 -26.5 -69.5t-16 -73.5 t-27.5 -58.5t-66 -23.5q-49 0 -69.5 22.5t-24.5 46.5q-10 74 -27.5 116t-41.5 65q-23 20 -45.5 33.5t-59.5 21.5t-97.5 11t-158.5 3q-68 0 -95.5 28t-27.5 58zM270 561q0 -61 41 -106t103 -45q233 0 233 237q0 111 -32.5 168t-106.5 57q-37 0 -79 -35.5t-77 -86 t-58.5 -102.5t-23.5 -87z" />
<glyph unicode="5" horiz-adv-x="978" d="M123 227q0 31 17.5 46.5t39.5 15.5q47 0 71.5 -32t52.5 -68.5t70 -68.5t122 -32q49 0 94 22.5t80 62.5t55 92t20 110q0 154 -68.5 245t-172.5 91q-51 0 -85 -9.5t-60.5 -21.5t-49 -21.5t-51.5 -9.5q-20 0 -38.5 3t-32 18.5t-18.5 49.5t3 97l41 295q6 47 18.5 72.5t31 38 t44 14.5t58.5 2h360q53 0 84 -8t31 -37q0 -16 -7.5 -28.5t-29 -19.5t-60 -10t-104.5 -3q-27 0 -78 -1.5t-103 -16.5t-91 -53t-39 -110q0 -51 18.5 -81.5t46 -48t57 -23.5t50.5 -6q43 0 57 2t33 2q66 0 126 -23.5t106 -70t75 -114t29 -157.5q0 -205 -114 -323.5t-312 -118.5 q-82 0 -151.5 17.5t-120 49t-78 75.5t-27.5 95z" />
<glyph unicode="6" horiz-adv-x="954" d="M82 573q0 106 16.5 224t64.5 217.5t135 165t226 65.5q80 0 137.5 -18.5t94.5 -45t54 -54t17 -46.5q0 -25 -15 -35t-38 -10q-41 0 -67.5 17.5t-52 38t-59.5 38t-91 17.5q-49 0 -95.5 -25.5t-83 -67.5t-58 -96.5t-21.5 -113.5q0 -74 42 -121t109 -47q59 0 108.5 18.5 t108.5 18.5q49 0 101.5 -17.5t95.5 -56.5t70.5 -101.5t27.5 -152.5q0 -82 -24.5 -153.5t-73.5 -126t-123 -86t-172 -31.5q-217 0 -325.5 141t-108.5 444zM270 369q0 -129 66.5 -210t171.5 -81q53 0 99 20.5t80 54t54.5 81t20.5 98.5q0 63 -16.5 118.5t-48 96.5t-77 64.5 t-104.5 23.5q-47 0 -92 -19.5t-79 -55.5t-54.5 -84t-20.5 -107z" />
<glyph unicode="7" horiz-adv-x="1024" d="M90 1169q0 94 143 95h570q156 0 155 -115q0 -35 -5 -57.5t-20 -49t-43 -64.5t-71 -104q-47 -72 -89 -144.5t-81 -164.5t-75.5 -213t-77.5 -289q-12 -49 -50.5 -73.5t-97.5 -24.5q-53 0 -81.5 18.5t-28.5 67.5t29.5 140.5t78.5 200t111.5 224t128.5 213.5q29 41 39 69 t10 46q0 72 -48 107.5t-128 35.5h-217q-152 0 -152 82z" />
<glyph unicode="8" horiz-adv-x="946" d="M106 305q0 74 24 118t52.5 79t52 69.5t23.5 90.5q0 49 -14.5 81.5t-32.5 63.5t-32.5 67.5t-14.5 94.5q0 123 85 196.5t259 73.5q176 0 254 -76.5t78 -193.5q0 -55 -15.5 -94t-34 -73t-34 -64.5t-15.5 -71.5q0 -57 23.5 -94t52.5 -72t52.5 -78t23.5 -113q0 -68 -22.5 -126 t-69.5 -101t-121 -67.5t-176 -24.5q-178 0 -288 77.5t-110 237.5zM250 334q0 -63 21.5 -113.5t55 -86.5t76.5 -55.5t84 -19.5q117 0 190 75t73 192q0 57 -16.5 108t-48.5 91t-77 63.5t-104 23.5q-53 0 -100.5 -22.5t-81 -60t-53 -88t-19.5 -107.5zM287 940q0 -66 19.5 -115 t50 -80.5t69.5 -47t78 -15.5q43 0 82 18.5t67.5 51t46 75.5t17.5 93q0 49 -13.5 94t-40 79.5t-65.5 55t-90 20.5q-39 0 -79 -15t-71.5 -44t-51 -72t-19.5 -98z" />
<glyph unicode="9" horiz-adv-x="966" d="M111 846q0 78 24.5 149.5t71.5 126t115.5 86t156.5 31.5q447 0 447 -586q0 -315 -107.5 -489t-351.5 -174q-78 0 -131 21.5t-86 49t-47.5 55t-14.5 38.5q0 25 18.5 28.5t55.5 3.5q27 0 49.5 -17t50 -37.5t62.5 -38t84 -17.5q47 0 93 23.5t83 63.5t59.5 90t22.5 101 q0 201 -164 201q-47 0 -93 -18.5t-108 -18.5q-37 0 -87 15.5t-95 52.5t-76.5 100.5t-31.5 159.5zM250 883q0 -63 19.5 -117.5t53 -94.5t80 -61.5t101.5 -21.5q47 0 90 22.5t77 60.5t54 87t20 100q0 59 -17 113.5t-49 94.5t-78 63.5t-105 23.5q-45 0 -90.5 -20.5t-79 -56.5 t-55 -85t-21.5 -108z" />
<glyph unicode=":" horiz-adv-x="405" d="M90 119q0 127 119 127q78 0 102.5 -36t24.5 -91q0 -72 -32 -99.5t-91 -27.5q-123 0 -123 127zM90 754q0 80 35 111.5t84 31.5q72 0 99.5 -35t27.5 -88q0 -78 -30 -106.5t-89 -28.5q-127 0 -127 115z" />
<glyph unicode=";" horiz-adv-x="405" d="M88 94q0 68 33 97.5t82 29.5q61 0 90 -35.5t29 -128.5v-86q0 -90 -28 -151.5t-60.5 -94t-60.5 -36.5t-28 20q0 8 5.5 25.5t11.5 38t11 42t5 38.5q0 29 -14 54t-30.5 53t-31 59.5t-14.5 74.5zM88 786q0 53 25.5 88t93.5 35q47 0 78.5 -25.5t31.5 -97.5q0 -66 -27.5 -92 t-86.5 -26q-55 0 -85 31.5t-30 86.5z" />
<glyph unicode="&#x3c;" horiz-adv-x="1019" d="M45 575q0 53 36 80t95 56q16 8 71.5 32.5t131.5 57.5t162 68.5t160.5 66.5t128 50.5t63.5 19.5q23 0 40 -9.5t17 -40.5q0 -18 -21.5 -46.5t-68.5 -51.5l-352 -147q-59 -25 -89 -61t-30 -66q0 -37 30 -74t85 -61l340 -144q106 -43 106 -102q0 -29 -18.5 -39t-34.5 -10 q-25 0 -41 8t-70 28l-630 267q-53 23 -82 56.5t-29 61.5z" />
<glyph unicode="=" horiz-adv-x="1069" d="M117 350q0 66 135 66h594q143 0 143 -66q0 -35 -29.5 -50t-109.5 -15h-598q-135 0 -135 65zM117 809q0 66 127 65h610q135 0 135 -65q0 -35 -29.5 -50.5t-101.5 -15.5h-598q-143 0 -143 66z" />
<glyph unicode="&#x3e;" horiz-adv-x="1077" d="M109 954q0 29 17 41.5t36 12.5q18 0 32.5 -4.5t24.5 -8.5l676 -286q45 -18 70.5 -38t38 -38.5t15.5 -32.5t3 -22q0 -41 -26.5 -69t-75.5 -50q-8 -4 -63.5 -28.5t-134.5 -59.5t-169 -74t-171 -73t-139.5 -55.5t-72.5 -21.5q-37 0 -47 16.5t-10 33.5q0 37 26.5 61.5 t63.5 40.5l360 156q53 23 80 55.5t27 62.5q0 88 -111 132l-319 135q-61 29 -96 54.5t-35 59.5z" />
<glyph unicode="?" horiz-adv-x="1048" d="M90 997q0 41 32 87t88 84t133 62.5t165 24.5q109 0 198 -20.5t153.5 -60t100 -98t35.5 -132.5q0 -66 -25.5 -134.5t-109.5 -135.5l-295 -234q-25 -23 -48 -30t-46 -7q-70 0 -70 54q0 31 18.5 57.5t48.5 54t66.5 57t75.5 64.5q16 14 37 34.5t40.5 46.5t32.5 57.5t13 66.5 q0 47 -17.5 86t-48 66.5t-71.5 44t-88 16.5q-70 0 -117 -29.5t-84 -64.5t-67.5 -64.5t-67.5 -29.5q-25 0 -53.5 12t-28.5 65zM332 72q0 72 38 95t81 23t74.5 -33.5t31.5 -76.5q0 -72 -32.5 -97.5t-86.5 -25.5q-59 0 -82.5 34t-23.5 81z" />
<glyph unicode="@" horiz-adv-x="1540" d="M74 592q0 180 68.5 317.5t176 229.5t237.5 139t255 47q115 0 232.5 -40t215 -113.5t159 -180t61.5 -239.5q0 -111 -32 -185.5t-104 -158.5q-86 -104 -160.5 -142.5t-158.5 -38.5q-37 0 -79 10.5t-89 10.5q-45 0 -79 -12.5t-93 -12.5q-63 0 -115.5 24.5t-89.5 67.5 t-57.5 101.5t-20.5 126.5q0 84 29 154.5t78 122.5t115.5 82t142.5 30q66 0 113 -16.5t84 -16.5q53 0 71.5 4t46.5 4q43 0 58.5 -25.5t15.5 -56.5q0 -14 -2 -30.5t-6 -40t-11.5 -57t-17.5 -85.5q-4 -18 -8 -57t3 -79t32.5 -70.5t79.5 -30.5q29 0 57.5 12t40.5 29 q23 29 37 69.5t22.5 80.5t11.5 73t3 47q0 98 -32 171t-87 144q-37 47 -79 88t-97 71t-127 46.5t-168 16.5q-125 0 -237.5 -45t-195.5 -127t-132 -197t-49 -254q0 -111 38.5 -221.5t118.5 -199.5t200 -145.5t281 -56.5q84 0 146.5 12.5t106.5 27t73 26.5t47 12q25 0 25 -20 q0 -25 -39 -52.5t-98.5 -52t-130 -40t-134.5 -15.5q-152 0 -289 54.5t-240 149.5t-163.5 226t-60.5 287zM561 571q0 -49 17.5 -88t46 -65.5t64.5 -41t73 -14.5q45 0 86 17.5t72.5 48.5t51 73t19.5 91q0 86 -52 147.5t-148 61.5q-49 0 -91.5 -19.5t-73 -52.5t-48 -74 t-17.5 -84z" />
<glyph unicode="A" horiz-adv-x="1318" d="M86 46v6q0 20 12 50l394 1061q43 115 126 115h95q31 0 66.5 -18.5t64.5 -92.5l409 -1081q7 -22 7 -37q0 -5 -1 -11q-4 -18 -16 -27t-28.5 -12t-30.5 -3q-59 0 -86 19.5t-49 54.5q-23 35 -54.5 70.5t-56.5 47.5q-29 16 -76 24.5t-100 8.5h-197q-80 0 -146.5 -32.5 t-94.5 -82.5q-29 -47 -58.5 -78.5t-101.5 -31.5q-16 0 -33.5 3t-30 14t-14.5 33zM459 573q-11 -35 -11 -66q0 -61 40 -107q60 -68 184 -68q128 0 188 76q37 48 38 109q0 36 -13 77l-66 209q-23 66 -56.5 104.5t-86.5 38.5t-93 -41t-59 -102z" />
<glyph unicode="B" horiz-adv-x="1171" d="M102 168v946q0 59 17.5 89t89.5 30h192l340 -4q154 -4 245 -66.5t91 -167.5q0 -82 -23.5 -123t-52 -69.5t-52 -59t-23.5 -92.5q0 -59 31.5 -96t70.5 -68.5t70.5 -69.5t31.5 -102q0 -61 -19 -117.5t-68.5 -99.5t-133.5 -68.5t-213 -25.5l-299 -4h-176q-39 0 -62.5 5 t-35.5 23.5t-16.5 51.5t-4.5 88zM233 332q0 -287 324 -287q86 0 164 18.5t136 54.5t92 90t34 124q0 135 -91 208.5t-265 77.5h-25q-100 0 -168 -14q-76 -16 -121 -51t-62.5 -89t-17.5 -132zM233 938v-13q0 -129 77 -196q81 -70 239 -70q96 0 166.5 23t117 59.5t68 84.5 t21.5 100q0 115 -83 188.5t-249 73.5q-68 0 -131.5 -7t-112.5 -32t-80 -75t-33 -136z" />
<glyph unicode="C" horiz-adv-x="1253" d="M78 649q0 164 52 292t140 217t205 136t246 47q102 0 188 -27.5t148.5 -67.5t98.5 -86t36 -81t-23.5 -56.5t-70.5 -21.5q-33 0 -68 24t-75 52.5t-90 52t-115 23.5q-205 0 -320 -135t-115 -377q0 -111 30 -205t85 -163.5t132 -108.5t171 -39q72 0 126 22.5t96 49t75 49 t60 22.5q49 0 77.5 -19.5t28.5 -53.5q0 -37 -41 -81t-105.5 -83t-145.5 -64.5t-163 -25.5q-150 0 -271.5 54t-208.5 149.5t-135 225.5t-48 279z" />
<glyph unicode="D" horiz-adv-x="1236" d="M106 96v1057q0 82 70 82h422q139 0 247.5 -40t185.5 -113.5t117 -181t40 -243.5q0 -156 -32 -278.5t-108.5 -205.5t-206.5 -127t-329 -44h-324q-82 0 -82 94zM250 387q0 -147 71.5 -221t210.5 -74q123 0 218.5 39t160 109.5t97 167t32.5 208.5q0 111 -30.5 207.5t-94 168 t-158.5 112.5t-225 41q-84 0 -139 -20.5t-87 -64.5t-44 -113.5t-12 -170.5v-389z" />
<glyph unicode="E" horiz-adv-x="1052" d="M106 139v991q0 115 99 115h667h20.5t29 -3t25.5 -12t11 -26q0 -45 -94 -45h-340q-104 0 -172.5 -60.5t-68.5 -168.5q0 -109 70.5 -165t191.5 -60l274 -5h21.5t32 -3t28.5 -12t12 -26q0 -45 -94 -45h-295q-104 0 -177 -65.5t-73 -200.5q0 -129 66 -199.5t205 -70.5l381 -4 h21.5t31.5 -3t28.5 -12.5t12.5 -25.5q0 -29 -34 -37t-105 -8h-660q-68 0 -91.5 29.5t-23.5 121.5z" />
<glyph unicode="F" horiz-adv-x="1067" d="M82 86v1057q0 110 109 110h2h720q53 0 82 -15t29 -50q0 -31 -28.5 -46.5t-82.5 -15.5l-360 4q-121 0 -189.5 -59t-68.5 -174t66.5 -172t187.5 -57h307q53 0 84 -15.5t31 -50.5q0 -31 -29 -46t-82 -15h-328q-102 0 -153 -41q-51 -40 -71 -102q-19 -58 -18 -127v-7 q1 -72 1 -133q0 -98 -21.5 -135t-76.5 -37q-72 0 -91.5 30.5t-19.5 96.5z" />
<glyph unicode="G" horiz-adv-x="1329" d="M76 633q0 57 10 130t35.5 148.5t71 147t114 128t165.5 91.5t226 35q96 0 185.5 -23.5t157 -57.5t108.5 -73t41 -67q0 -16 -14.5 -33t-55.5 -17q-35 0 -68.5 21.5t-76.5 46.5t-99.5 46.5t-140.5 21.5q-106 0 -193 -38t-147.5 -107.5t-93.5 -169t-33 -222.5t33 -224.5 t93.5 -173t144.5 -111.5t184 -40q72 0 137.5 24.5t117.5 61.5t83 83t31 89q0 41 -18.5 79t-47.5 56q-23 16 -55.5 23.5t-62 14.5t-50 18.5t-20.5 38.5q0 8 3 16t15 15t35.5 12.5t64.5 5.5h201q68 0 89.5 -34t21.5 -101v-385q0 -6 -1 -21.5t-7.5 -32t-20.5 -29t-41 -12.5 q-20 0 -31.5 2t-24 6.5t-30.5 9.5t-53 11q-43 0 -69.5 -2t-37.5 -6l-102 -37q-98 -37 -205 -37q-162 0 -270.5 61.5t-175 157.5t-95 216t-28.5 237z" />
<glyph unicode="H" horiz-adv-x="1212" d="M82 102v1045q0 47 24.5 69.5t55.5 22.5t55.5 -22.5t24.5 -69.5q0 -6 -2 -36q-1 -10 -1 -27q0 -33 3 -93q4 -150 79.5 -208t210.5 -58h189q23 0 64.5 4t84.5 25.5t77 65.5t40 126l2 184q0 61 22.5 84t53.5 23q49 0 67.5 -28.5t18.5 -114.5v-992q0 -106 -78 -106 q-47 0 -64.5 26.5t-17.5 79.5l-4 246q-4 127 -75.5 192.5t-211.5 65.5h-188q-127 0 -198.5 -68.5t-71.5 -185.5v-250q0 -102 -78 -102q-49 0 -65.5 24.5t-16.5 77.5z" />
<glyph unicode="I" horiz-adv-x="356" d="M115 205v901q0 59 7 89t62 30q25 0 39.5 -3t22.5 -22.5t10 -60.5t2 -119v-901q0 -59 -9 -89t-56 -30q-31 0 -47.5 5t-22.5 26.5t-7 62.5t-1 111z" />
<glyph unicode="J" horiz-adv-x="638" d="M31 68q0 43 27.5 59t67.5 30.5t83 37t72 77.5q8 16 14 29.5t10 33t6 48.5t2 74l4 737q0 53 26 79.5t85 26.5q68 0 91.5 -27.5t23.5 -94.5v-918q0 -80 -24.5 -133t-70 -84t-107.5 -44t-138 -13h-74q-47 0 -72.5 20.5t-25.5 61.5z" />
<glyph unicode="K" horiz-adv-x="1187" d="M86 96v1037q0 61 21.5 83.5t56.5 22.5q53 0 71.5 -26.5t18.5 -100.5v-143q0 -86 44 -139.5t112 -53.5q29 0 51 6t53 30t76 72t119 130q66 72 104.5 116t69 69.5t62.5 34.5t79 9q25 0 43 -3t18 -21q0 -8 -21.5 -36t-58 -68t-82.5 -89t-96 -102q-53 -72 -53 -144 q0 -80 33 -139l332 -553q10 -16 19 -32.5t9 -32.5q0 -23 -18.5 -28t-34.5 -5q-53 0 -87 24.5t-69 77.5l-229 365q-35 53 -76 79.5t-96 26.5t-109.5 -28.5t-97.5 -81t-69.5 -127t-26.5 -168.5q0 -96 -14 -130t-56 -34h-32q-35 0 -50.5 29.5t-15.5 72.5z" />
<glyph unicode="L" horiz-adv-x="903" d="M90 139v1073q0 66 32 96.5t91 30.5q68 0 97.5 -33t29.5 -94q0 -216 -1 -366q0 -75 -0.5 -137t0.5 -111q1 -98 3 -153.5t7 -87t13.5 -47t18.5 -31.5q18 -27 37.5 -43.5t58.5 -25.5t107.5 -13t185.5 -4q59 0 95 -21.5t36 -65.5q0 -106 -131 -106h-561q-59 0 -89 30.5 t-30 108.5z" />
<glyph unicode="M" horiz-adv-x="1568" d="M86 156v909q0 53 3 87t20.5 52.5t53.5 25.5t99 7q59 0 95 -5t58.5 -20.5t36 -46t27.5 -84.5q41 -172 72 -307q18 -82 29.5 -130t20.5 -88t15 -66l7 -27q23 -80 64.5 -124t90.5 -44q23 0 46.5 8t47 32.5t45 66.5t37.5 110l144 590q14 55 32.5 82.5t43 40t58.5 12.5h79 q61 0 96 -5t51.5 -30.5t20.5 -81t4 -157.5v-807q0 -92 -17.5 -126t-52.5 -34q-33 0 -49 15.5t-22.5 37t-6.5 43v35.5v565q0 104 -36.5 156.5t-86.5 52.5q-29 0 -55.5 -13.5t-52 -52t-50 -108.5t-50.5 -182l-107 -443q-16 -66 -47 -88t-68 -22q-41 0 -71.5 21.5t-46.5 80.5 q-14 57 -38 151.5t-48.5 194t-49 189.5t-41.5 137q-18 55 -55 97t-67 42q-143 0 -144 -188v-561q0 -74 -12 -115t-53 -41q-14 0 -27.5 3t-23 18.5t-14.5 46t-5 88.5z" />
<glyph unicode="N" horiz-adv-x="1191" d="M96 133v995q0 94 62 95h53q37 0 65.5 -15.5t53.5 -62.5l266 -463q41 -70 72.5 -118t59.5 -75.5t55.5 -40t58.5 -12.5q78 0 118.5 64.5t40.5 156.5v471q0 86 54 86q49 0 49 -118v-996q0 -94 -78 -94h-33q-37 0 -68.5 19.5t-54.5 54.5l-331 561q-35 59 -80 99t-92 40 q-84 0 -126 -58t-42 -167v-438q0 -43 -9.5 -73t-44.5 -30q-25 0 -37 26t-12 93z" />
<glyph unicode="O" horiz-adv-x="1441" d="M74 639q0 145 48 268t132 214t198.5 142.5t247.5 51.5q168 0 293 -55.5t208 -147.5t125 -215t42 -258q0 -145 -47 -270t-132 -216.5t-203 -142.5t-261 -51q-150 0 -270.5 52t-205.5 143.5t-130 216.5t-45 268zM266 651q0 -121 33 -222t91.5 -174t139 -113t175.5 -40 q102 0 189 38t149.5 107.5t97.5 169t35 222.5q0 90 -28 186.5t-84 175t-140 129t-199 50.5q-96 0 -180 -37t-145.5 -104.5t-97.5 -166t-36 -221.5z" />
<glyph unicode="P" horiz-adv-x="1232" d="M106 102v1049q0 98 119 98h467q231 0 361.5 -90t130.5 -299q0 -139 -56.5 -223t-145.5 -128t-195.5 -57.5t-208.5 -13.5q-106 0 -164 -28.5t-84.5 -77.5t-30.5 -117t-4 -145q0 -31 -18.5 -63t-71.5 -32q-61 0 -80 28t-19 99zM295 844q0 -76 10 -132.5t39 -94t80 -57 t133 -19.5h107q68 0 127 22.5t102 60.5t68.5 87t25.5 100q0 72 -19.5 134.5t-60.5 108.5t-104.5 71.5t-151.5 25.5h-119q-123 0 -180 -73.5t-57 -233.5z" />
<glyph unicode="Q" horiz-adv-x="1445" d="M70 639q0 145 45 268t128 214t200.5 142.5t265.5 51.5q145 0 265 -47t207 -136.5t135 -214t48 -282.5q0 -92 -15.5 -158.5t-34 -117t-33.5 -90.5t-15 -81q0 -31 8 -51t20 -43q18 -31 33.5 -45t44.5 -37q12 -10 26.5 -23t14.5 -38q0 -45 -57 -45q-29 0 -56.5 10t-50.5 23 q-10 6 -30.5 17t-47 23.5t-57.5 20.5t-65 8q-18 0 -46 -3t-69 -13q-80 -16 -134.5 -24.5t-82.5 -8.5q-141 0 -260 50t-205 139.5t-134 215t-48 275.5zM262 643q0 -119 33 -219t93.5 -173t144 -113t184.5 -40q106 0 189 45t141.5 116t89 156t30.5 167q0 102 -20.5 207.5 t-72.5 191.5t-141 140.5t-224 54.5q-94 0 -176 -36t-142.5 -104.5t-94.5 -167t-34 -225.5z" />
<glyph unicode="R" horiz-adv-x="1179" d="M98 154v929q0 29 1 53.5t10.5 44t31 31t64.5 11.5h311q98 0 206.5 -3t201 -34t152 -104.5t59.5 -215.5q0 -98 -37 -153.5t-82 -95t-82 -79.5t-37 -110q0 -88 29 -139l118 -213q4 -8 12.5 -23.5t10.5 -29t-6 -23.5t-37 -10q-43 0 -70.5 15t-49 43t-41 68t-48.5 87 q-55 96 -94 153.5t-75 89t-72.5 42t-90.5 10.5q-45 0 -88 -12.5t-74.5 -46t-51 -96t-19.5 -165.5q0 -61 -3 -98t-11.5 -57.5t-23.5 -26.5t-40 -6q-43 0 -58.5 32.5t-15.5 131.5zM250 866q0 -63 13 -119.5t46 -96.5t88.5 -63.5t139.5 -23.5h102q72 0 132 23.5t106.5 63.5 t72 96.5t25.5 119.5q0 139 -99.5 221t-310.5 82q-94 0 -155.5 -20.5t-97.5 -60t-49 -95t-13 -127.5z" />
<glyph unicode="S" horiz-adv-x="1191" d="M98 141q0 35 28 48.5t58 14.5q33 0 71 -20t87 -42.5t112.5 -42t147.5 -19.5q72 0 134.5 19.5t108.5 51t73.5 74.5t27.5 88q0 117 -93 176.5t-267 81.5q-250 31 -369 110t-119 239q0 180 132 286.5t368 106.5q78 0 158 -17.5t146.5 -44.5t108.5 -58t42 -60 q0 -25 -23.5 -41.5t-46.5 -16.5q-35 0 -75 18.5t-86 40t-102 39t-126 17.5q-61 0 -114.5 -17.5t-92.5 -48t-61.5 -72.5t-22.5 -91q0 -41 16.5 -79t56.5 -70t105.5 -55.5t161.5 -37.5q135 -20 229.5 -49t153.5 -71t86 -98.5t27 -129.5q0 -193 -147.5 -301.5t-413.5 -108.5 q-100 0 -187.5 19.5t-152 47t-102.5 59.5t-38 54z" />
<glyph unicode="T" horiz-adv-x="1142" d="M82 1149q0 90 131 90h733q55 0 97 -20.5t42 -69.5q0 -94 -151 -94q-70 0 -113 -25.5t-66.5 -62.5t-30.5 -80t-7 -78v-707q0 -92 -24.5 -134t-110.5 -42q-74 0 -102.5 39t-28.5 117v711q0 53 -8.5 100t-33 83t-71.5 57.5t-125 21.5q-53 0 -92 22.5t-39 71.5z" />
<glyph unicode="U" horiz-adv-x="1228" d="M90 463v659q0 59 15.5 95t50.5 36h53q74 0 74 -131v-676q0 -82 24.5 -150.5t68.5 -117.5t107.5 -76.5t139.5 -27.5q78 0 140 27.5t106 76.5t69 118t25 150v676q0 66 17 100.5t77 34.5q27 0 45 -6t30.5 -25.5t17.5 -57.5t5 -103v-602q0 -88 -24.5 -179t-85 -166t-163 -123 t-259.5 -48q-147 0 -249 42t-165.5 112.5t-91 163.5t-27.5 198z" />
<glyph unicode="V" horiz-adv-x="1193" d="M39 1220q4 28 19.5 41t36 16t34.5 3q23 0 45.5 -3t46 -20.5t45 -55.5t39.5 -109l156 -541q25 -84 58.5 -118t80.5 -34q43 0 81 40t62 120l177 590q25 80 62.5 103.5t96.5 23.5q86 0 86 -57q0 -16 -2 -30.5t-6 -27.5l-369 -1065q-10 -33 -23 -58.5t-34.5 -43t-55.5 -25.5 t-87 -8q-41 0 -70 5t-50.5 20.5t-35.5 42t-29 67.5l-352 1045q-13 41 -13 67q0 6 1 12z" />
<glyph unicode="W" horiz-adv-x="1765" d="M28 1208q15 33 58 33q49 0 72.5 -36t42.5 -115l118 -558q6 -31 19.5 -62.5t32 -56t43 -41t53.5 -16.5q61 0 97 56.5t64.5 161t60.5 250t85 323.5q12 47 39 72.5t76 25.5q41 0 74.5 -25.5t52.5 -93.5l155 -602q23 -90 62 -127t86 -37q111 0 147 181l115 532q4 16 9 43 t17.5 54.5t31 47t44.5 19.5q53 1 67 -25q6 -11 5 -31q0 -26 -10 -67q-2 -14 -28.5 -114.5t-64.5 -245t-81 -309t-80 -306.5q-6 -27 -12 -53.5t-21.5 -48t-44.5 -35.5t-78 -14q-61 0 -97 25.5t-54 92.5q-8 35 -25.5 100.5t-38 142.5t-42 156t-38.5 138q-16 61 -33.5 100 t-36 60.5t-40 29t-45.5 7.5q-109 0 -152 -160l-155 -594q-12 -49 -44 -73.5t-92 -24.5q-68 0 -100.5 35.5t-50.5 115.5l-262 983q-8 27 -8 49q0 21 7 37z" />
<glyph unicode="X" horiz-adv-x="1204" d="M12 12q0 25 37 72t90 125q-16 -25 -8 -12.5t31.5 45t56.5 79t63.5 88.5t53 73.5t24.5 37.5q25 41 39.5 79t14.5 73q0 18 -6.5 41.5t-15.5 46t-18 42t-18 29.5l-225 316q-31 41 -35 64.5t5.5 36t26.5 15.5t28 3q53 0 83.5 -4.5t57.5 -24.5t55.5 -61t73.5 -115 q90 -143 176 -143q31 0 67.5 14t67.5 55t66 97.5t69 103.5q23 31 57 54.5t111 23.5q35 0 52.5 -6.5t17.5 -34.5q0 -14 -5 -28.5t-17.5 -36t-35 -51.5t-57.5 -77q-66 -86 -104.5 -142t-59 -96t-26.5 -67t-6 -55q0 -59 23.5 -101.5t41.5 -70.5q121 -170 186.5 -262.5 t97.5 -138.5t38 -59t6 -28q0 -25 -17.5 -35t-60.5 -10q-45 0 -76.5 7.5t-60.5 32t-62.5 74.5t-87.5 136q-74 123 -121 164t-88 41q-37 0 -64.5 -8t-57 -36t-64.5 -80t-88 -138q-45 -76 -79 -115t-61.5 -56.5t-53 -19.5t-56.5 -2q-82 0 -82 45z" />
<glyph unicode="Y" horiz-adv-x="1210" d="M26 1212v6q0 24 14 38q15 16 43 20t50 4q66 0 103.5 -14.5t68.5 -47t61.5 -87t82.5 -134.5q35 -55 75.5 -91t83.5 -36t82 33t70 82l127 197q43 66 91 80t114 14q47 0 72.5 -8t25.5 -45q0 -25 -9.5 -44.5t-39.5 -62.5l-291 -409q-23 -31 -44.5 -71t-37.5 -89 q-10 -35 -15 -75t-5 -69l-5 -360q0 -18 -6 -39.5t-21.5 -40t-40 -31t-63.5 -12.5q-72 0 -103.5 32t-31.5 91v332q0 90 -22.5 165.5t-51.5 116.5l-340 476q-35 51 -37 79z" />
<glyph unicode="Z" horiz-adv-x="1208" d="M49 61q0 53 30 98.5t85 106.5l487 541q59 66 81 110t22 78q0 61 -51.5 104.5t-141.5 43.5h-332q-14 0 -32.5 3t-35 9t-27.5 17.5t-11 27.5q0 25 24.5 43.5t73.5 18.5h791q66 0 90 -27t24 -68q0 -66 -27.5 -107.5t-70.5 -88.5l-459 -512q-55 -61 -93 -108.5t-42 -112.5 q0 -61 52.5 -104.5t168.5 -43.5h353q8 0 24.5 -1t33.5 -7t30.5 -17.5t13.5 -31.5q0 -35 -29.5 -48.5t-109.5 -13.5h-803q-119 0 -119 90z" />
<glyph unicode="[" horiz-adv-x="438" d="M86 -113v1368q0 115 115 115h71.5t61 -1t43 -5t16.5 -14q0 -16 -27.5 -24.5t-60.5 -33t-60.5 -77t-27.5 -160.5v-1037q0 -80 27.5 -124t60.5 -68.5t60.5 -34.5t27.5 -22q0 -16 -49 -18.5t-115 -2.5q-49 0 -77.5 8t-43 25.5t-18.5 44.5t-4 61z" />
<glyph unicode="\" horiz-adv-x="761" d="M62.5 1314q17.5 32 52.5 32t62.5 -29t55.5 -94l467 -1131q23 -51 23 -83t-9 -47t-22.5 -20t-19.5 -5t-19.5 3t-32 16t-38 40t-37.5 72l-471 1146q-29 68 -11.5 100z" />
<glyph unicode="]" horiz-adv-x="438" d="M-6 1368q0 6 3 11t21.5 9.5t58.5 6.5t113 2q86 0 117 -37t31 -148v-1314q0 -43 -8 -71t-28.5 -43t-56.5 -20.5t-91 -5.5q-57 0 -89 3t-47.5 7.5t-17.5 10.5t-2 12q0 12 29.5 19.5t66.5 32t66.5 75.5t29.5 152v1052q0 80 -49 148q-14 20 -38.5 35.5t-49 28t-42 20.5 t-17.5 14z" />
<glyph unicode="^" horiz-adv-x="1138" d="M99 762.5q3 21.5 16.5 44t23.5 37.5l242 360q49 72 99 91.5t85 19.5q80 0 126 -35t71 -72l258 -385q23 -33 26 -54t-4.5 -33.5t-19.5 -17.5t-23 -5q-59 0 -94 33.5t-57 68.5l-70 111q-47 72 -95 105.5t-114 33.5q-47 0 -96 -24.5t-84 -77.5l-94 -148q-8 -10 -20.5 -27.5 t-31 -34t-40 -28.5t-47.5 -12q-37 0 -48.5 14t-8.5 35.5z" />
<glyph unicode="_" horiz-adv-x="909" d="M-2 -344q0 78 94 78h709q102 0 102 -78q0 -43 -28.5 -60.5t-81.5 -17.5h-689q-106 0 -106 78z" />
<glyph unicode="`" horiz-adv-x="430" d="M102 1143q0 23 17.5 30t40.5 7q35 0 68.5 -16.5t59 -40t41 -50t15.5 -49.5q0 -18 -8 -27.5t-37 -9.5q-25 0 -58.5 17.5t-64.5 42t-52.5 51t-21.5 45.5z" />
<glyph unicode="a" d="M41 211q0 63 26.5 112.5t72.5 85t108.5 58t132.5 31.5q145 18 222 70.5t77 117.5q0 92 -58.5 152.5t-138.5 60.5h-32q-45 0 -79 -19.5t-63.5 -42t-57.5 -42t-63 -19.5q-18 0 -33.5 2t-15.5 27q0 31 28 55.5t73 43t100 27.5t111 9q164 0 246.5 -30.5t116.5 -98.5 t36 -173.5t2 -254.5v-299q0 -82 -74 -82q-31 0 -81 14.5t-99 14.5q-45 0 -78 -9.5t-62.5 -19.5t-63.5 -19.5t-83 -9.5q-55 0 -104 16.5t-86 47.5t-58.5 75t-21.5 99zM205 240q0 -80 58.5 -134.5t137.5 -54.5q59 0 110.5 20.5t91.5 55.5t62.5 83t22.5 103q0 72 -50 122 t-134 50q-51 0 -104.5 -19.5t-96.5 -53t-70.5 -78.5t-27.5 -94z" />
<glyph unicode="b" horiz-adv-x="1056" d="M94 336v852q0 45 23.5 65.5t52.5 20.5t52.5 -20.5t23.5 -61.5q0 -84 10 -140.5t31.5 -90t55.5 -47t83 -13.5q2 0 26.5 5t58.5 11.5t66.5 11.5t49.5 5q180 0 280.5 -119t100.5 -336q0 -113 -27 -206t-75 -159.5t-114.5 -102.5t-148.5 -36q-49 0 -88 7.5t-72.5 16.5 t-64.5 16.5t-66 9.5q-37 0 -52 -4.5t-27.5 -8.5t-29 -8t-55.5 -4q-33 0 -52 7t-28.5 41t-11.5 101.5t-2 186.5zM254 467q0 -106 24.5 -184t64.5 -130.5t94.5 -78t111.5 -25.5q39 0 91 19.5t99 65.5t80 121t33 187q0 106 -23.5 184.5t-63.5 130.5t-94.5 77.5t-117.5 25.5 q-76 0 -132 -32.5t-93 -87t-55.5 -125t-18.5 -148.5z" />
<glyph unicode="c" horiz-adv-x="956" d="M59 453q0 102 31 195t91.5 164t151.5 114t210 43q72 0 137 -14.5t114.5 -37t79 -52t29.5 -60.5q0 -37 -23.5 -51.5t-66.5 -14.5q-16 0 -39.5 13.5t-54.5 29t-67 27.5t-77 12q-61 0 -114 -25.5t-92 -71.5t-61.5 -112.5t-22.5 -150.5q0 -74 19.5 -140.5t56 -117.5t91 -81 t123.5 -30q57 0 95.5 13.5t67 30t53 29.5t55.5 13q61 0 61 -53q0 -20 -26.5 -51t-75.5 -59.5t-115.5 -49t-146.5 -20.5q-106 0 -195.5 33.5t-154 98t-99.5 159t-35 217.5z" />
<glyph unicode="d" horiz-adv-x="1077" d="M55 457q0 59 14.5 142t55.5 159t116.5 129t198.5 53q25 0 54.5 -4t58.5 -8t55.5 -8.5t44.5 -4.5q49 0 79 16.5t52 57.5q29 59 33 112.5t7 93.5t16.5 62.5t58.5 22.5q49 0 63.5 -26.5t14.5 -75.5v-1090q0 -47 -23.5 -68.5t-54.5 -21.5q-39 0 -65.5 6t-85.5 14 q-18 4 -24.5 5.5t-12.5 1.5t-15.5 -1t-33.5 -6q4 0 -14.5 -5t-41 -11t-43 -11t-24.5 -5q10 0 3 -2t-36 -7q-12 -4 -21.5 -4h-19.5q-184 0 -297 119t-113 365zM223 453q0 -88 19.5 -161t57.5 -125t93.5 -82t124.5 -30q25 0 74 14.5t98 58.5t86 126t37 219q0 84 -21.5 155.5 t-60.5 123.5q-39 54 -91 82q-46 25 -99 24h-15q-31 -2 -82 -11t-100 -49t-85 -121t-36 -224z" />
<glyph unicode="e" horiz-adv-x="989" d="M55 440q0 227 115 363.5t336 136.5q133 0 216 -46t131 -110.5t65.5 -130t17.5 -106.5q0 -37 -20.5 -55.5t-69.5 -18.5l-258 4q-190 0 -267 -40t-77 -144q0 -45 23.5 -89t61.5 -78t88 -54.5t101 -20.5q102 0 144 29l106 70q16 10 25.5 19t40.5 9q41 0 39.5 -32.5 t-43.5 -71.5t-122.5 -72t-201.5 -33q-100 0 -184 34t-142.5 95.5t-91.5 148.5t-33 193zM264 670q0 -74 62.5 -121t154.5 -47h70q37 0 71.5 13t61.5 34.5t43 49.5t16 58q0 39 -15 75t-44 63.5t-72 45t-98 17.5q-117 0 -183.5 -54t-66.5 -134z" />
<glyph unicode="f" horiz-adv-x="595" d="M55 891q0 16 5.5 25.5t14.5 18.5t23.5 21.5t30.5 32.5q8 10 14.5 21.5t15.5 33t23.5 57.5t36.5 97q8 20 22.5 43t40 42.5t66.5 31.5t101 12q68 0 93 -18.5t25 -53.5q0 -14 -1 -21t-7 -15.5t-22.5 -20.5t-47.5 -37q-6 -4 -14 -17.5t-14 -28.5t-11.5 -30.5t-5.5 -25.5 q0 -31 21 -66q4 -8 17.5 -19t26.5 -23.5t23.5 -27t10.5 -28.5t-5.5 -21.5t-14.5 -14.5t-23.5 -17.5t-34.5 -28.5q-25 -23 -51.5 -69t-26.5 -107v-422q0 -70 -4 -114t-14.5 -67.5t-30 -31.5t-49.5 -8q-31 0 -50.5 8t-29.5 31.5t-14.5 67.5t-4.5 114l-4 414q0 68 -16 102.5 t-41 69.5q-18 25 -46 45t-28 45z" />
<glyph unicode="g" horiz-adv-x="1011" d="M66 471q0 98 26.5 181t71.5 142.5t105.5 93.5t127.5 34q35 0 69 -8.5t87 -20.5q47 -10 78 -15.5t49 -5.5q12 0 20.5 3.5t20.5 6.5t33.5 5t60.5 2q61 0 82 -26.5t21 -76.5v-860q0 -72 -23 -127t-74 -92t-135 -56.5t-207 -19.5q-104 0 -172.5 16.5t-109.5 39t-57.5 45 t-16.5 35.5q0 35 14.5 46t38.5 11q31 0 63.5 -24.5t70.5 -55.5t83 -55.5t99 -24.5q59 0 109 18.5t88 49t59.5 73.5t21.5 93q0 180 -180 180h-23q-14 -2 -29.5 -3t-37.5 -5q16 0 5 -2t-32.5 -5.5t-46.5 -5.5t-37 0q-63 4 -122.5 28t-103.5 73t-70.5 125.5t-26.5 187.5z M213 508q0 -180 77 -282.5t206 -102.5q61 0 113.5 24.5t91 68.5t60 104.5t21.5 130.5q0 82 -19.5 153.5t-56 125.5t-89 86t-117.5 32q-59 0 -111.5 -23.5t-91.5 -66.5t-61.5 -106.5t-22.5 -143.5z" />
<glyph unicode="h" horiz-adv-x="972" d="M98 71.5v18.5v1102q0 35 23.5 55.5t51.5 20.5t50.5 -20.5t22.5 -67.5q0 -291 164 -291q18 0 47.5 3t70.5 13t64.5 13.5t34.5 3.5q262 0 262 -316v-528q0 -4 -1 -17.5t-7.5 -28t-16.5 -25.5t-28 -11q-61 0 -78 19.5t-17 62.5v348q0 393 -245 393q-250 0 -250 -422v-319 q0 -4 -1 -17.5t-7.5 -28t-16.5 -25.5t-28 -11q-31 0 -48.5 7t-26.5 16.5t-11.5 19.5t-4.5 14q-4 10 -4 18.5z" />
<glyph unicode="i" horiz-adv-x="411" d="M119 199v581q0 74 18.5 111t71.5 37q37 0 57.5 -10.5t29.5 -35t10 -67.5t1 -108v-578q0 -143 -86 -143q-33 0 -53.5 7t-31.5 28.5t-14 64.5t-3 113zM139 1243q0 53 66 53q31 0 56.5 -11t25.5 -42q0 -25 -23.5 -39t-42.5 -14q-47 0 -64.5 14.5t-17.5 38.5z" />
<glyph unicode="j" horiz-adv-x="399" d="M4 -268q-1 6 -1 11q0 21 13 35q15 17 37 48q78 115 78 197v774q0 84 11.5 126t66.5 42q23 0 40 -5.5t29.5 -27t18.5 -63.5t6 -117v-758q0 -158 -46 -237t-167 -79q-41 0 -61.5 15.5t-24.5 38.5zM156 1288q0 29 19.5 35t41.5 6q29 0 45.5 -9t16.5 -32q0 -31 -24 -38 t-42 -7q-29 0 -43 13.5t-14 31.5z" />
<glyph unicode="k" horiz-adv-x="888" d="M94 123v1053q0 29 13.5 63.5t56.5 34.5q86 0 86 -98v-320q0 -80 43 -134t96 -54q35 0 82.5 27.5t106.5 86.5q47 47 74.5 73t49 38t39 14t41.5 2q4 0 24.5 -1t20.5 -23q0 -23 -14 -39.5t-31 -34.5q-68 -82 -101.5 -130t-33.5 -108q0 -86 29 -131l205 -348q21 -36 21 -62 v-8q-4 -28 -42 -28q-45 0 -72.5 12t-45 30.5t-26.5 38t-20 34.5l-86 127q-81 118 -174 118h-2q-35 0 -67.5 -18.5t-57 -49t-40 -71.5t-15.5 -86q0 -72 -22.5 -101.5t-51.5 -29.5q-86 0 -86 123z" />
<glyph unicode="l" horiz-adv-x="370" d="M86 225v922q0 84 18.5 126t83.5 42q61 0 84 -33t22 -94v-1106q0 -102 -97 -102q-37 0 -58.5 8t-34 34.5t-15.5 74.5t-3 128z" />
<glyph unicode="m" horiz-adv-x="1603" d="M90 383v303q0 68 4 109t13.5 63.5t28 29.5t44.5 7q10 0 15.5 -1t14.5 -2t26.5 -3t50.5 -6q-8 0 -1 -1t21.5 -3t28.5 -3.5t16 -1.5q53 0 152 25q41 10 69.5 15.5t44.5 5.5h41q41 0 74 -17l94 -41q53 -24 107 -24h4q74 0 98 12l94 45q31 16 70 22.5t70 6.5 q129 0 189.5 -61.5t60.5 -196.5v-574q0 -8 -4.5 -21.5t-11.5 -25.5t-18 -21.5t-28 -9.5q-37 0 -53 17.5t-16 60.5v348q0 193 -66 295.5t-201 102.5q-92 0 -142 -52.5t-74.5 -120t-29 -132t-4.5 -89.5v-352q0 -8 -4 -21.5t-11 -26.5t-18.5 -23.5t-27.5 -10.5 q-31 0 -50.5 19.5t-19.5 62.5v373q0 377 -262 377q-123 0 -188.5 -98.5t-65.5 -290.5v-361q0 -8 -4 -21.5t-11 -26.5t-18.5 -22.5t-27.5 -7.5q-31 4 -45.5 12.5t-20.5 45.5q-4 16 -6 94t-2 217z" />
<glyph unicode="n" horiz-adv-x="966" d="M98 94v721q0 41 21.5 59.5t56.5 18.5q49 0 104.5 -8t116.5 -8q20 0 43 7t51.5 15t65.5 15.5t82 7.5q76 0 122 -24t70.5 -61.5t32.5 -86t8 -99.5v-553q0 -61 -21.5 -75.5t-43.5 -14.5q-31 0 -48.5 15.5t-17.5 58.5l-4 377q0 115 -21.5 187.5t-57 113.5t-79.5 56t-92 15 q-121 0 -189.5 -94t-68.5 -245v-410q0 -25 -14 -49.5t-55 -24.5q-35 0 -48.5 18.5t-13.5 67.5z" />
<glyph unicode="o" horiz-adv-x="1091" d="M57 457q0 104 34 193t94.5 153.5t143.5 100.5t179 36q260 0 398 -122.5t138 -364.5q0 -111 -34.5 -200t-99 -152.5t-155.5 -97.5t-206 -34q-113 0 -204 35t-155.5 98.5t-98.5 153.5t-34 201zM217 481q0 -199 91 -310.5t245 -111.5q61 0 120.5 26t105.5 75t74 121.5 t28 167.5q0 109 -28 184.5t-74 123.5t-105.5 70.5t-124.5 22.5q-61 0 -120.5 -24.5t-107 -71.5t-76 -116t-28.5 -157z" />
<glyph unicode="p" horiz-adv-x="1024" d="M86 -229v1028q0 39 9 60.5t23.5 32.5t31 14t30.5 3q43 0 83 -10t69 -10t57.5 8t59 17.5t66.5 16.5t75 7q72 0 140.5 -27.5t122.5 -84t88 -140.5t34 -199q0 -248 -92 -382t-281 -134q-12 0 -36.5 3t-51.5 7.5t-51.5 7.5t-36.5 3q-92 0 -147 -74q-10 -16 -18.5 -32.5 t-13.5 -38t-7 -51t-2 -75.5q0 -31 -19.5 -54t-50.5 -23q-43 0 -62.5 23.5t-19.5 103.5zM238 446q0 -82 22.5 -154.5t60 -126.5t90 -85t109.5 -31q147 0 231.5 109.5t84.5 308.5q0 82 -20.5 152.5t-59.5 123t-93.5 83t-121.5 30.5q-106 0 -168 -54t-91.5 -125t-36.5 -137.5 t-7 -93.5z" />
<glyph unicode="q" horiz-adv-x="1052" d="M63 473q0 109 27 194t75 145t114.5 92t148.5 32q45 0 82 -7t67.5 -15.5t58.5 -15.5t54 -7q53 0 95 8t73 8q55 0 74.5 -35.5t19.5 -140.5v-962q0 -49 -14 -86t-64 -37q-14 0 -29.5 5t-26.5 20.5t-18 45t-7 80.5q0 78 -46.5 137.5t-125.5 59.5q-47 0 -83 -10.5t-102 -10.5 q-180 0 -276.5 129t-96.5 371zM203 477q0 -94 20.5 -172t58 -133t91 -86t116.5 -31q47 0 101.5 15.5t100.5 59.5t78 124t32 207q0 106 -29 181t-73 123t-95 70.5t-98 22.5q-76 0 -133.5 -32.5t-95 -86t-56 -122t-18.5 -140.5z" />
<glyph unicode="r" horiz-adv-x="604" d="M102 178v619q0 143 103 143q23 0 52.5 -5t59 -11t53 -11.5t31.5 -5.5q25 0 39.5 1t25.5 3t24.5 3t33.5 1q25 0 47.5 -9t22.5 -56q0 -37 -22.5 -53.5t-71.5 -44.5q-39 -20 -60.5 -33.5t-34 -23t-19.5 -18.5t-21 -24q-29 -41 -43.5 -84t-14.5 -96v-352q0 -139 -82 -139 q-39 0 -63.5 6t-37.5 27.5t-17.5 60.5t-4.5 102z" />
<glyph unicode="s" horiz-adv-x="917" d="M74 664q0 72 32.5 125t86 88.5t123 54t143.5 18.5q55 0 110.5 -8t100.5 -23t72.5 -35t27.5 -44q0 -16 -13.5 -26.5t-43.5 -10.5q-27 0 -52.5 8t-53 17.5t-59.5 16.5t-73 7q-80 0 -134 -41t-54 -102q0 -33 13 -62t46 -53.5t89.5 -46t142.5 -39.5q141 -31 215.5 -83 t74.5 -167q0 -63 -28.5 -118.5t-80.5 -95.5t-125 -62.5t-159 -22.5q-84 0 -156.5 12.5t-125 30.5t-82 43t-29.5 49q0 29 14.5 37t38.5 8q27 0 56.5 -13t67.5 -28.5t85 -29t107 -15.5q104 0 158.5 50t54.5 118t-69 120t-239 81q-82 14 -137 39.5t-87 58.5t-45 70t-13 74z" />
<glyph unicode="t" horiz-adv-x="569" d="M37 870q0 14 12 31t27.5 35t33 37.5t25.5 40.5q4 4 5 6t3 13t7.5 35t13.5 69q10 43 39.5 56t54.5 13q31 0 53.5 -14t32.5 -64q4 -16 5 -28.5t5 -27.5t12.5 -35.5t22.5 -55.5q10 -20 27.5 -33.5t35 -25t31 -23.5t13.5 -29q0 -20 -8.5 -28t-23.5 -18.5t-35.5 -29 t-47.5 -59.5q-16 -25 -26.5 -82t-10.5 -118v-197q0 -20 3 -50t12.5 -61.5t24.5 -61.5t42 -48q25 -18 59.5 -46t34.5 -57q0 -73 -92 -73h-2q-133 0 -199.5 66.5t-66.5 207.5v356q0 74 -13.5 113t-44.5 88q-16 29 -40.5 46t-24.5 52z" />
<glyph unicode="u" horiz-adv-x="962" d="M92 307v520q0 82 58 82q74 0 73 -86v-446q0 -23 6.5 -72t31 -98t74.5 -87t138 -38q59 0 107.5 24.5t82 67.5t53 101.5t19.5 125.5v422q0 33 7.5 50.5t18.5 25.5t23.5 9t20.5 1q35 0 48 -25.5t13 -84.5v-684q0 -90 -90 -90q-53 0 -94 10t-94 10q-23 0 -53.5 -7 t-64.5 -15.5t-68.5 -15.5t-63.5 -7q-70 0 -117 14.5t-75.5 50t-41 95t-12.5 147.5z" />
<glyph unicode="v" horiz-adv-x="878" d="M30 900q14 32 64 32q35 0 59.5 -5t43 -26.5t33 -61.5t28.5 -112q41 -180 76 -266t108 -86q43 0 78 32.5t53 98.5l86 323q31 106 127 107q4 0 16.5 -1t25 -7t21.5 -17.5t11 -31.5q1 -3 1 -8q0 -9 -3 -21q-4 -19 -10 -36t-11.5 -30.5t-5.5 -15.5l-233 -680 q-37 -111 -139 -111q-68 0 -112 26t-73 110l-229 675q-19 53 -19 85q-1 16 4 27z" />
<glyph unicode="w" horiz-adv-x="1355" d="M14 866q4 31 58 31q37 0 56 -34t30 -81l49 -245q23 -111 61.5 -152t69.5 -41q123 0 160 164l69 311q18 90 111 90q35 0 57.5 -6t39 -24.5t27.5 -51t19 -86.5l45 -233q16 -84 54 -126t86 -42q55 0 88.5 40t58.5 132l82 324q6 29 30.5 47t47.5 18q31 0 42 -16.5t11 -28.5 q0 -31 -10 -65.5t-23 -69.5l-213 -623q-16 -47 -52 -72.5t-71 -25.5q-37 0 -58 12.5t-36.5 43t-29 82.5t-31.5 132q-31 135 -66 192.5t-102 57.5q-16 0 -28.5 -5t-29.5 -15q-8 -8 -18 -15.5t-20.5 -19.5t-19.5 -33.5t-19 -58.5l-74 -287q-10 -41 -44 -63.5t-63 -22.5 q-49 0 -82.5 26.5t-56.5 100.5l-192 647q-14 49 -14 78q0 8 1 14z" />
<glyph unicode="x" horiz-adv-x="761" d="M30 14q-7 6 -6 16q0 15 15 40l172 278q18 31 25.5 73t7.5 66q0 78 -33 131l-131 213q-16 29 -19.5 58t31.5 29q23 0 40.5 -2.5t35.5 -11.5t38.5 -29.5t49.5 -59.5q41 -53 73.5 -65.5t57.5 -12.5q31 0 69 17.5t87 85.5q35 49 64.5 65.5t58.5 16.5q16 0 34.5 -5.5 t18.5 -27.5q0 -14 -18.5 -49t-43 -73t-48 -73t-34.5 -51q-18 -35 -33.5 -76t-15.5 -75q0 -53 16.5 -93.5t28.5 -62.5l156 -254q19 -32 19 -51q0 -7 -2 -11q-8 -20 -37 -20q-33 0 -55.5 6t-38 19.5t-30 35t-32.5 50.5q-37 59 -66.5 90.5t-89.5 31.5q-35 0 -59.5 -8t-43 -24.5 t-36.5 -41t-41 -57.5q-35 -53 -61.5 -77.5t-69.5 -24.5q-38 0 -54 14z" />
<glyph unicode="y" horiz-adv-x="854" d="M28 888q3 19 15 31.5t28.5 16.5t30.5 4q37 0 58.5 -12.5t33 -30.5t16.5 -36.5t7 -31.5l66 -286q23 -96 50 -154.5t89 -58.5q8 0 24.5 3t37 18.5t40 45t33.5 80.5q10 41 18.5 78t16.5 77t19.5 89t27.5 117q27 102 119 102q37 0 64 -22q16 -14 16 -38q0 -15 -7 -34 l-323 -983q-16 -49 -40 -92t-58.5 -76t-82.5 -51.5t-114 -18.5q-55 0 -91 13.5t-36 44.5q0 23 15.5 38t36 26t42 18.5t33.5 15.5q59 41 74.5 86t11.5 61q1 8 1 18q0 27 -8 64q-11 51 -34 123l-225 705q-6 23 -6 39q0 6 1 11z" />
<glyph unicode="z" horiz-adv-x="839" d="M18 76q0 47 20.5 78.5t61.5 72.5l291 291q43 43 62.5 85t19.5 83q0 66 -53 107t-189 41q-51 0 -77.5 5t-39 11t-13.5 14t-1 15q0 12 25 24t111 12h462q61 0 90 -16t29 -57q0 -47 -15.5 -80t-62.5 -80l-303 -307q-41 -41 -55 -80t-14 -68q0 -88 94 -131q23 -8 57.5 -13 t69.5 -6t64.5 -1h37.5h27.5t35 -3t31 -10.5t13.5 -19.5q0 -18 -11.5 -28.5t-42.5 -16.5q-12 -4 -72.5 -4h-168.5h-307q-86 0 -131.5 10t-45.5 72z" />
<glyph unicode="{" horiz-adv-x="536" d="M82 637q0 39 24.5 58.5t55.5 50t55.5 89t24.5 175.5q0 41 -1 110.5t13 137t53 116.5t119 49q29 0 37 -6t8 -18q0 -18 -25.5 -44t-56.5 -87q-20 -39 -23.5 -105.5t-4.5 -139.5t-7 -141.5t-30 -109.5q-27 -45 -40.5 -81t-12.5 -66.5t15.5 -61.5t41.5 -69 q25 -37 28.5 -103.5t3.5 -140.5t4.5 -143.5t28.5 -112.5q35 -59 56.5 -79.5t21.5 -39.5q0 -25 -37 -25q-88 0 -129 49.5t-55 116t-11 136t3 108.5q0 123 -24.5 184.5t-55.5 92t-55.5 48t-24.5 52.5z" />
<glyph unicode="|" horiz-adv-x="258" d="M98 96v1078q0 39 3 60t8.5 31.5t11.5 12.5t10 2q12 0 26.5 -16.5t14.5 -89.5v-1078q0 -39 -5 -59.5t-11 -29.5t-13.5 -11t-11.5 -2t-10 2t-11.5 11t-8.5 29.5t-3 59.5z" />
<glyph unicode="}" horiz-adv-x="557" d="M80 -131q0 27 17.5 41t38 44t37.5 87t17 168v55t4.5 85t14.5 92t31 79q37 59 36.5 118.5t-49.5 143.5q-25 43 -31 128t-6 200q0 80 -17 129t-37.5 79t-38 47t-17.5 32q0 16 11 20t30 4q80 0 120 -50t55 -118.5t14 -138.5t-1 -110q0 -106 24.5 -163t55.5 -88.5t55.5 -54 t24.5 -63.5q0 -20 -10 -34.5t-26.5 -30t-38 -36t-44.5 -55.5q-12 -18 -19 -36.5t-11.5 -46t-5.5 -67.5t-1 -104q0 -27 -1 -89t-18.5 -126.5t-56 -113t-116.5 -48.5q-41 0 -41 21z" />
<glyph unicode="~" horiz-adv-x="856" d="M98 653q0 23 34 54.5t114 31.5q55 0 106 -16t101.5 -34.5t101.5 -35t104 -16.5q29 0 43.5 2t23.5 4t17.5 4t22.5 2q31 0 34 -13t3 -20q0 -25 -36 -57.5t-103 -32.5q-53 0 -102.5 17.5t-98.5 38t-99.5 38t-109.5 17.5q-31 0 -44 -2t-21.5 -4t-17.5 -4t-32 -2q-25 0 -33 9 t-8 19z" />
<glyph unicode="&#xa0;" horiz-adv-x="819" d="M0 0z" />
<glyph unicode="&#xa1;" horiz-adv-x="311" d="M86 102q0 109 4 176.5t8 102.5q4 41 11.5 89t16.5 90t19.5 70.5t18.5 28.5q14 0 27.5 -44t25.5 -99t19.5 -108.5t9.5 -71.5l4 -217q0 -49 -9.5 -78t-21.5 -43t-26.5 -18.5t-24.5 -4.5q-47 0 -64.5 33t-17.5 94zM90 1167q0 47 20.5 66.5t57.5 19.5q35 0 56.5 -21.5 t21.5 -64.5q0 -37 -19.5 -57t-54.5 -20q-82 -1 -82 77z" />
<glyph unicode="&#xa2;" horiz-adv-x="931" d="M45 647q0 135 40 236.5t136 181.5q43 37 104.5 65.5t108.5 65.5q18 14 31.5 37.5t26 46.5t25.5 39t32 16q20 0 34.5 -16t27 -37.5t24.5 -45.5t29 -40q31 -27 70.5 -48.5t76.5 -44t61.5 -47t24.5 -57.5q0 -25 -24.5 -47t-53.5 -22q-39 0 -65.5 12t-54 26.5t-60.5 27 t-82 12.5q-63 0 -114.5 -29t-87.5 -76t-54 -109.5t-18 -129.5q0 -170 78.5 -271.5t207.5 -101.5q47 0 84 14t69 30.5t59.5 31t54.5 14.5q16 0 40.5 -11.5t24.5 -45.5q0 -35 -29.5 -64t-70.5 -54.5t-84 -52t-70 -59.5q-20 -27 -31.5 -54.5t-18.5 -51t-16.5 -39t-27.5 -15.5 q-20 0 -30.5 12.5t-17.5 31t-14.5 40t-19.5 39.5q-25 37 -59.5 60.5t-73.5 45t-80 45t-78 58.5q-68 66 -101.5 159t-33.5 222z" />
<glyph unicode="&#xa3;" horiz-adv-x="974" d="M45 106q0 49 30.5 80t67.5 43l111 37q31 10 60.5 41t29.5 78q0 55 -24.5 88t-61.5 51q-14 6 -33.5 13.5t-38 16.5t-31 21.5t-12.5 30.5t6.5 34.5t14.5 33t14 35t6 41.5q0 39 -6 62.5t-14 46t-14.5 51t-6.5 73.5q0 51 27 99t76 86t120.5 61.5t161.5 23.5t159 -23.5 t117 -60t72.5 -82t24.5 -88.5q0 -12 -12 -36.5t-49 -24.5q-39 0 -65.5 30.5t-56.5 67.5t-70 68t-107 31q-96 0 -154.5 -61.5t-58.5 -147.5q0 -119 43 -180.5t94 -90t94 -39t43 -30.5q0 -25 -11 -35t-27.5 -21.5t-37 -31t-39.5 -60.5q-12 -29 -22 -67.5t-10 -75.5 q0 -57 17 -95t43 -60.5t57.5 -32t58.5 -9.5q59 0 94 21.5t58.5 48.5t44 48.5t53.5 21.5q37 0 47 -16.5t10 -41.5q0 -33 -15.5 -69.5t-43 -66.5t-65.5 -49.5t-81 -19.5q-61 0 -97 9.5t-63.5 19.5t-55.5 19.5t-71 9.5q-49 0 -76.5 -7.5t-54 -17.5t-60.5 -17t-95 -7 q-43 0 -79 39.5t-36 82.5zM127 98q0 -25 16.5 -41t40.5 -16q25 0 41.5 16.5t16.5 40.5q0 25 -16.5 43.5t-41.5 18.5t-41 -18.5t-16 -43.5z" />
<glyph unicode="&#xa4;" horiz-adv-x="1091" d="M84 995.5q-8 32.5 20 63.5q57 53 129 -19l109 -110q12 -12 16 -19q74 39 160 39q141 0 234 -49q12 16 24 29l109 110q72 72 129 19q29 -31 20.5 -63.5t-45.5 -71.5l-94 -95q-16 -16 -33 -26q57 -84 58 -219q0 -125 -62 -219q16 -8 31 -25l108 -111q68 -66 13 -120 q-53 -53 -131 20l-95 94q-10 12 -19 23.5t-15 21.5q-84 -47 -201 -47q-102 0 -184 39q-6 -8 -13.5 -17.5t-17.5 -19.5l-94 -94q-78 -74 -131 -20q-55 55 12 120l108 111q12 12 19 16q-68 96 -68 232q0 66 17.5 121t48.5 100q-4 4 -10.5 9t-12.5 11l-94 95q-37 39 -45 71.5z M362 602q0 -111 51.5 -174t137.5 -63q70 0 127 56t57 163q0 121 -57 173t-129 52q-35 0 -69 -14.5t-59.5 -40t-42 -64.5t-16.5 -88z" />
<glyph unicode="&#xa5;" horiz-adv-x="991" d="M40 1204q9 25 71 25q41 0 67.5 -5t50 -30t48 -74t63.5 -137q31 -68 74 -95.5t73 -27.5q74 0 116 64.5t85 169.5q18 45 36.5 71.5t39 41t45.5 18.5t55 4q37 0 57.5 -13.5t20.5 -35.5q0 -23 -23.5 -60t-52 -83t-52 -96t-23.5 -101q0 -39 9 -61.5t21.5 -40t21.5 -34t9 -40.5 q0 -25 -35 -31t-78 -18.5t-77.5 -42t-34.5 -101.5q0 -57 33.5 -84t73.5 -39t73 -19t33 -30q0 -20 -29 -28.5t-69 -20.5t-78.5 -38t-61.5 -85q-10 -31 -17 -57.5t-17.5 -45t-28 -29.5t-47.5 -11q-35 0 -64 19.5t-35 62.5q-14 88 -57 125.5t-87 53t-79 22.5t-35 32q0 23 34 31 t74 20t72.5 40t32.5 89q0 66 -36 92.5t-79 39t-78.5 21.5t-35.5 36q0 12 11 29.5t25.5 39t26 45t11.5 49.5q0 35 -5.5 59.5t-15.5 43.5l-106 184q-35 61 -26 86z" />
<glyph unicode="&#xa7;" horiz-adv-x="966" d="M45 631q0 57 21.5 97t48 76t48 73.5t21.5 89.5q0 47 -10 87t-10 101q0 33 15.5 73t53 75.5t102 60.5t161.5 25q66 0 123 -9.5t100 -24t67.5 -31.5t24.5 -34q0 -37 -49 -37q-31 0 -55.5 7.5t-49 15.5t-55.5 15t-74 7q-96 0 -144 -48t-48 -103q0 -43 13 -76t50 -64.5 t101.5 -67.5t167.5 -83q133 -61 197.5 -131t64.5 -180q0 -43 -16.5 -92.5t-65.5 -120.5q-31 -43 -44 -81t-13 -67q0 -14 3 -38.5t7 -50t7 -49t3 -34.5q0 -86 -45 -136t-104.5 -76.5t-117 -34t-81.5 -7.5q-51 0 -104.5 9.5t-97.5 22.5t-72.5 29.5t-28.5 33.5q0 18 12 31.5 t37 13.5q18 0 42.5 -8.5t54.5 -17.5t66 -16.5t74 -7.5q84 0 138.5 45t54.5 119q0 43 -18.5 77t-58.5 65.5t-102.5 67.5t-148.5 81q-68 35 -118 69t-82.5 70.5t-49 82.5t-16.5 106zM176 659q0 -45 18.5 -82.5t48 -69.5t66.5 -59.5t76 -50.5q72 -47 129 -70.5t92 -23.5 q41 0 75 16.5t59.5 43t40 61.5t14.5 72q0 86 -60.5 148.5t-140.5 109.5q-72 41 -133.5 65.5t-104.5 24.5q-41 0 -74.5 -16.5t-57 -42t-36 -58.5t-12.5 -68z" />
<glyph unicode="&#xa8;" horiz-adv-x="704" d="M63 1079q0 25 18.5 41.5t47.5 16.5t47.5 -16.5t18.5 -41.5t-18.5 -41t-47.5 -16t-47.5 16.5t-18.5 40.5zM494 1079q0 23 18 38.5t47 15.5t47.5 -15.5t18.5 -38.5t-18.5 -38t-47.5 -15t-47 15.5t-18 37.5z" />
<glyph unicode="&#xa9;" horiz-adv-x="1495" d="M33 606q0 145 55 273.5t150.5 223.5t223.5 151.5t275 56.5t277.5 -53.5t228.5 -145.5t154.5 -219.5t56.5 -274.5q0 -162 -59.5 -293.5t-157.5 -226t-222 -145.5t-253 -51q-154 0 -287 53t-231.5 148.5t-154.5 224.5t-56 278zM123 614q0 -147 48 -269t131 -210t197.5 -136 t245.5 -48q72 0 177.5 29.5t205 103.5t170 201t70.5 321q0 123 -43 241t-123 210t-195.5 148.5t-261.5 56.5q-109 0 -220 -40t-200 -120t-145.5 -202t-56.5 -286zM397 610q0 94 29 165t77 118t112.5 70.5t134.5 23.5q53 0 96 -13t73.5 -31.5t47 -41t16.5 -41.5 q0 -12 -3 -20.5t-22 -8.5q-16 0 -37.5 13.5t-49 30t-59.5 30t-71 13.5q-45 0 -89 -20.5t-77.5 -58.5t-54 -92.5t-20.5 -123.5q0 -76 20.5 -136.5t54 -102.5t78.5 -63.5t97 -21.5q47 0 77.5 14.5t55 30.5t44 30.5t40.5 14.5q18 0 23 -9t5 -15q0 -23 -19.5 -47.5t-52 -44 t-75.5 -32t-90 -12.5q-82 0 -148.5 29t-113.5 79t-73 120.5t-26 152.5z" />
<glyph unicode="&#xaa;" horiz-adv-x="819" d="M43 868q0 78 25.5 144.5t70.5 115t107.5 76t134.5 27.5q195 0 299 -93.5t104 -273.5q0 -166 -100 -264t-272 -98t-270.5 100t-98.5 266zM70 305q0 78 94 78h508q102 0 102 -78q0 -43 -28.5 -60.5t-81.5 -17.5h-488q-106 0 -106 78zM205 924q0 -111 51 -173.5t139 -62.5 q70 0 127.5 55.5t57.5 161.5q0 61 -16.5 104.5t-42 70t-59.5 38.5t-71 12q-35 0 -68.5 -13t-59 -39.5t-42 -65.5t-16.5 -88z" />
<glyph unicode="&#xab;" horiz-adv-x="692" d="M82 504q0 47 17.5 83t40 60.5t45 36.5t32.5 12q33 0 33 -37t-18.5 -68.5t-18.5 -78.5q0 -29 6 -49.5t12.5 -36.5t12.5 -31.5t6 -38.5q0 -31 -10.5 -38t-22.5 -7q-6 0 -27.5 11.5t-46 35t-43 59.5t-18.5 87zM455 504q0 43 16 78.5t38.5 60.5t45.5 39t35 14t22.5 -9.5 t10.5 -27.5q0 -31 -16.5 -65.5t-16.5 -89.5q0 -49 16.5 -85t16.5 -71q0 -12 -3.5 -22.5t-25.5 -10.5q-10 0 -33.5 11.5t-47.5 35t-41 59.5t-17 83z" />
<glyph unicode="&#xac;" horiz-adv-x="1536" d="M53 332q0 66 4 113t8.5 86.5t8.5 77.5t4 83t-2 73t-4 49.5t-4 39.5t-2 43q0 150 258 328q47 35 89 52t78.5 27.5t69.5 16.5t66 14q55 16 93 37t87 21q47 0 99 -15.5t104.5 -38t97.5 -48.5t76 -46q45 -29 96 -63.5t95 -74.5t74 -86t30 -99q0 -61 -2 -98.5t-4.5 -68 t-4.5 -61t-2 -80.5q0 -49 1 -81.5t3.5 -60.5t3.5 -54.5t1 -61.5q0 -98 -60.5 -166.5t-157.5 -136.5q-59 -43 -125.5 -81t-128 -65.5t-113.5 -43t-87 -15.5q-31 0 -53.5 4.5t-43 12.5t-42 18.5t-50.5 22.5q-68 29 -135 47t-151 67q-53 33 -103.5 65t-88.5 68.5t-60.5 79.5 t-22.5 99zM94 725q0 -37 5 -105.5t22.5 -136t52.5 -117t92 -47.5q37 2 61.5 18.5t40 41t24.5 55.5l18 62q16 53 45.5 92t76.5 39q35 0 65 -35t51.5 -85t32.5 -104.5t11 -95.5q0 -39 -4 -76.5t-3 -65.5t14.5 -45.5t45.5 -17.5q33 0 45.5 44t24.5 97.5t33.5 97.5t73.5 44 q29 0 60.5 -17.5t71.5 -38t86 -38t101 -17.5q47 0 81 26t55.5 67t32.5 94t11 108t-8 123t-27.5 127.5t-52.5 99t-80 39.5t-73.5 -35.5t-43 -82.5t-28.5 -95.5t-31 -72.5q-37 -49 -72.5 -80t-66.5 -31q-25 0 -43 27.5t-32.5 67.5t-24 88.5t-15.5 86.5q-10 74 -15 137.5 t-12.5 110.5t-20.5 74t-42 27q-27 0 -36 -39t-20 -86t-37 -86t-87 -39q-20 0 -53 11t-70 25.5t-74 26t-69 11.5q-63 0 -101.5 -34t-59 -80t-26.5 -93t-6 -72z" />
<glyph unicode="&#xad;" horiz-adv-x="503" d="M86 575q0 78 94 78h156q102 0 102 -78q0 -43 -28.5 -60t-81.5 -17h-135q-106 0 -107 77z" />
<glyph unicode="&#xae;" horiz-adv-x="1533" d="M49 602q0 152 55.5 282t151.5 225t226 150.5t280 55.5q168 0 301 -60.5t225 -160t141.5 -227.5t49.5 -261q0 -160 -59.5 -291t-159 -225t-227.5 -145t-267 -51q-143 0 -273.5 56t-228.5 152.5t-156.5 225.5t-58.5 274zM147 623q0 -143 46.5 -266.5t129.5 -212.5 t195.5 -139t243.5 -50q133 0 246.5 50t196.5 136t131 202t48 247q0 139 -46 260t-127 210t-192.5 141t-244.5 52q-129 0 -242.5 -47t-199.5 -130t-135.5 -198.5t-49.5 -254.5zM504 397v402q0 47 4 80.5t19.5 55t44 33t75.5 11.5q25 0 40 -1t36.5 -3t58.5 -3t107 -1 q68 0 118 -48.5t50 -115.5q0 -33 -3 -55.5t-12.5 -42t-25 -39t-37.5 -43.5q-35 -37 -52.5 -66t-17.5 -82q0 -18 7.5 -39.5t15.5 -43t15 -40t7 -28.5t-4 -17.5t-20 -7.5q-12 0 -26.5 11.5t-43.5 58.5q-41 68 -75.5 107.5t-88.5 39.5q-41 0 -68.5 -37t-37.5 -98 q-2 -6 -3 -19.5t-5 -25.5t-11.5 -22.5t-21.5 -10.5q-45 0 -45 90zM614 791q0 -55 40 -97.5t108 -42.5q78 0 121 40t43 95q0 53 -44 98.5t-112 45.5q-29 0 -57.5 -11.5t-50 -31t-35 -43.5t-13.5 -53z" />
<glyph unicode="&#xaf;" horiz-adv-x="503" d="M72 1075q0 78 94 78h156q102 0 102 -78q0 -43 -28.5 -60.5t-82.5 -17.5h-135q-106 0 -106 78z" />
<glyph unicode="&#xb0;" horiz-adv-x="434" d="M78 1063q0 66 45 113t110 47q66 0 111 -47t45 -113t-45 -111t-111 -45t-110.5 45t-44.5 111zM145 1036q0 -37 26 -64.5t62 -27.5q37 0 64 27.5t27 64.5t-27 62.5t-64 25.5t-62.5 -25.5t-25.5 -62.5z" />
<glyph unicode="&#xb1;" horiz-adv-x="1003" d="M102 74q0 25 37 35t103 10q84 0 133 15.5t76.5 38t36 48t8.5 45.5q0 14 -6.5 45t-18.5 67t-29.5 71.5t-40.5 58.5q-39 39 -90 47t-97 11t-79 10.5t-33 41.5q0 33 32 42.5t78 12.5t96 11t85 37q29 25 44.5 53.5t26.5 53t23.5 41t36.5 16.5q23 0 34 -15.5t22.5 -40 t27.5 -53t47 -55.5q39 -33 88.5 -40t93.5 -10t74.5 -10.5t30.5 -42.5q0 -31 -31.5 -39t-78 -11t-97.5 -12t-88 -44q-27 -25 -45 -60.5t-30.5 -72.5t-17.5 -68.5t-5 -48.5q0 -20 9 -44.5t37 -46t77 -37t131 -15.5q92 0 115.5 -13.5t23.5 -35.5q0 -23 -25.5 -38.5t-97.5 -15.5 h-606q-59 0 -85 16.5t-26 41.5z" />
<glyph unicode="&#xb4;" horiz-adv-x="348" d="M80 1026q0 12 11 34.5t32.5 44t50.5 37t62 15.5q35 0 44 -12.5t9 -28.5q0 -10 -15.5 -31.5t-40 -43t-54 -37t-58.5 -15.5t-35 12.5t-6 24.5z" />
<glyph unicode="&#xb5;" horiz-adv-x="1536" d="M53 332q0 66 4 113t8.5 86.5t8.5 77.5t4 83t-2 73t-4 49.5t-4 39.5t-2 43q0 150 258 328q47 35 89 52t78.5 27.5t69.5 16.5t66 14q55 16 93 37t87 21q47 0 99 -15.5t104.5 -38t97.5 -48.5t76 -46q45 -29 96 -63.5t95 -74.5t74 -86t30 -99q0 -61 -2 -98.5t-4.5 -68 t-4.5 -61t-2 -80.5q0 -49 1 -81.5t3.5 -60.5t3.5 -54.5t1 -61.5q0 -98 -60.5 -166.5t-157.5 -136.5q-59 -43 -125.5 -81t-128 -65.5t-113.5 -43t-87 -15.5q-31 0 -53.5 4.5t-43 12.5t-42 18.5t-50.5 22.5q-68 29 -135 47t-151 67q-53 33 -103.5 65t-88.5 68.5t-60.5 79.5 t-22.5 99zM94 725q0 -37 5 -105.5t22.5 -136t52.5 -117t92 -47.5q37 2 61.5 18.5t40 41t24.5 55.5l18 62q16 53 45.5 92t76.5 39q35 0 65 -35t51.5 -85t32.5 -104.5t11 -95.5q0 -39 -4 -76.5t-3 -65.5t14.5 -45.5t45.5 -17.5q33 0 45.5 44t24.5 97.5t33.5 97.5t73.5 44 q29 0 60.5 -17.5t71.5 -38t86 -38t101 -17.5q47 0 81 26t55.5 67t32.5 94t11 108t-8 123t-27.5 127.5t-52.5 99t-80 39.5t-73.5 -35.5t-43 -82.5t-28.5 -95.5t-31 -72.5q-37 -49 -72.5 -80t-66.5 -31q-25 0 -43 27.5t-32.5 67.5t-24 88.5t-15.5 86.5q-10 74 -15 137.5 t-12.5 110.5t-20.5 74t-42 27q-27 0 -36 -39t-20 -86t-37 -86t-87 -39q-20 0 -53 11t-70 25.5t-74 26t-69 11.5q-63 0 -101.5 -34t-59 -80t-26.5 -93t-6 -72z" />
<glyph unicode="&#xb6;" horiz-adv-x="1230" d="M16 967q0 166 120 261t331 95h537q156 0 155 -180v-1372q0 -72 -31.5 -106t-91.5 -34q-66 0 -94.5 34t-28.5 106v1142q0 92 -27.5 138.5t-74.5 46.5q-98 0 -98 -185v-1142q0 -72 -32 -106t-91 -34q-66 0 -94.5 34t-28.5 106v618q0 59 -7 97t-27.5 65t-58.5 47t-100 41 q-258 92 -258 328z" />
<glyph unicode="&#xb7;" horiz-adv-x="376" d="M102 643q0 66 27 88.5t76 22.5q53 0 79.5 -25t26.5 -86t-22.5 -83.5t-75.5 -22.5t-82 20.5t-29 85.5z" />
<glyph unicode="&#xb8;" horiz-adv-x="479" d="M143 -8q0 16 9.5 26.5t27.5 10.5t48 -19.5t59 -42.5q37 -29 59.5 -54.5t22.5 -72.5q0 -31 -15.5 -54.5t-39 -39.5t-51 -24.5t-54.5 -8.5q-29 0 -37 5.5t-8 15.5q0 6 8 15t18.5 22.5t18.5 32t8 40.5q0 23 -11 42.5t-25.5 37t-26 33.5t-11.5 35z" />
<glyph unicode="&#xba;" horiz-adv-x="819" d="M70 305q0 78 94 78h508q102 0 102 -78q0 -43 -28.5 -60.5t-81.5 -17.5h-488q-106 0 -106 78zM106 682q0 96 75 148.5t181 66.5q109 14 166.5 54t57.5 87q0 70 -44 86.5t-104 16.5h-24q-33 0 -58.5 -5.5t-48 -12.5t-44 -12t-46.5 -5q-14 0 -25.5 2t-11.5 20 q0 23 20.5 41.5t54.5 31.5t76 20.5t83 7.5q123 0 184 -23.5t88 -74t28 -129t1 -191.5v-223q0 -61 -56 -62q-23 0 -60.5 10.5t-74.5 10.5q-35 0 -58.5 -7.5t-46 -14.5t-48 -14t-62.5 -7q-84 0 -143.5 47t-59.5 131zM356 723q0 -45 33 -76t78 -31q66 0 114 43t48 105 q0 41 -28 69.5t-75 28.5q-29 0 -59.5 -11t-55 -30.5t-40 -44t-15.5 -53.5z" />
<glyph unicode="&#xbb;" horiz-adv-x="692" d="M98 348q0 35 16.5 71t16.5 85q0 55 -16.5 89.5t-16.5 65.5q0 18 10.5 27.5t22.5 9.5t34.5 -14t45 -39t39 -60.5t16.5 -78.5q0 -47 -17.5 -83t-41 -59.5t-47 -35t-33.5 -11.5q-23 0 -26 10.5t-3 22.5zM471 356q0 23 6 38.5t12.5 31.5t12.5 36.5t6 49.5q0 47 -18.5 78.5 t-18.5 68.5t33 37q10 0 32.5 -12t45 -36.5t40 -60.5t17.5 -83q0 -51 -18.5 -87t-43 -59.5t-46 -35t-27.5 -11.5q-12 0 -22.5 7.5t-10.5 37.5z" />
<glyph unicode="&#xbf;" horiz-adv-x="1048" d="M86 250q0 66 25.5 134.5t109.5 135.5l295 234q25 23 48.5 30t45.5 7q70 0 70 -54q0 -31 -18.5 -57.5t-48 -54t-66.5 -57t-76 -64.5q-14 -14 -35.5 -34.5t-41 -46.5t-33 -57.5t-13.5 -66.5q0 -45 18.5 -85t49 -67.5t71.5 -44t86 -16.5q70 0 117 29.5t84 64.5t67.5 64.5 t67.5 29.5q25 0 53.5 -12t28.5 -65q0 -41 -31.5 -87.5t-88 -84t-132 -62t-166.5 -24.5q-106 0 -196 20.5t-154.5 61t-100.5 98t-36 131.5zM524 1176q0 72 33 97t86 25q59 0 83 -33.5t24 -80.5q0 -72 -38 -95.5t-81 -23.5t-75 34t-32 77z" />
<glyph unicode="&#xc0;" horiz-adv-x="1318" d="M86 46.5q-2 21.5 12 55.5l394 1061q43 115 126 115h95q31 0 66.5 -18.5t64.5 -92.5l409 -1081q10 -31 6 -48.5t-16 -26.5t-28.5 -12t-30.5 -3q-59 0 -86 19.5t-49 54.5q-23 35 -54.5 70.5t-56.5 47.5q-29 16 -76 24.5t-100 8.5h-197q-80 0 -146.5 -32.5t-94.5 -82.5 q-29 -47 -58.5 -78.5t-101.5 -31.5q-16 0 -33.5 3t-30 14.5t-14.5 33zM465 561q-25 -109 32.5 -172t180.5 -63q129 0 174 73.5t20 188.5l-47 215q-16 68 -53 102.5t-90 34.5t-98 -31.5t-60 -93.5zM532 1585q0 23 17.5 30t40.5 7q35 0 71.5 -17.5t65.5 -42t47.5 -52 t18.5 -50.5q0 -18 -8.5 -27.5t-36.5 -9.5q-25 0 -62 18.5t-70.5 44t-58.5 53.5t-25 46z" />
<glyph unicode="&#xc1;" horiz-adv-x="1318" d="M86 46.5q-2 21.5 12 55.5l394 1061q43 115 126 115h95q31 0 66.5 -18.5t64.5 -92.5l409 -1081q10 -31 6 -48.5t-16 -26.5t-28.5 -12t-30.5 -3q-59 0 -86 19.5t-49 54.5q-23 35 -52.5 71.5t-54.5 48.5q-29 16 -76 24.5t-100 8.5h-197q-80 0 -148.5 -33.5t-96.5 -83.5 q-29 -47 -58.5 -78.5t-101.5 -31.5q-16 0 -33.5 3t-30 14.5t-14.5 33zM455 573q-31 -104 31.5 -172.5t185.5 -68.5q129 0 188.5 75.5t24.5 186.5l-66 209q-23 66 -56.5 107.5t-86.5 41.5t-95 -44t-61 -105zM559 1462q0 12 12.5 35t35 46.5t52 39.5t62.5 16q35 0 44 -12 t9 -28q0 -10 -16.5 -33t-43 -45.5t-56 -39t-58.5 -16.5t-35 12.5t-6 24.5z" />
<glyph unicode="&#xc2;" horiz-adv-x="1318" d="M86 46.5q-2 21.5 12 55.5l394 1061q43 115 126 115h107q31 0 60.5 -18.5t58.5 -92.5l409 -1081q10 -31 6 -48.5t-16 -26.5t-28.5 -12t-30.5 -3q-59 0 -86 19.5t-49 54.5q-23 35 -54.5 70.5t-56.5 47.5q-29 16 -76 24.5t-100 8.5h-197q-80 0 -146.5 -32.5t-94.5 -82.5 q-29 -47 -58.5 -78.5t-101.5 -31.5q-16 0 -33.5 3t-30 14.5t-14.5 33zM416 1397q0 14 13 33.5t34.5 42t46.5 46t47 44.5q16 16 25.5 31.5t20.5 27.5t27.5 20.5t47.5 8.5q20 0 39.5 -14.5t36 -33l33 -37t30.5 -28.5q59 -41 90 -71.5t31 -77.5q0 -18 -2 -34t-25 -16t-49 21.5 t-56 48.5t-62.5 48.5t-69.5 21.5q-41 0 -71 -19.5t-54.5 -44t-47 -44t-48.5 -19.5q-25 0 -31 10t-6 35zM459 573q-31 -104 29.5 -172.5t183.5 -68.5q129 0 188.5 75.5t24.5 186.5l-66 209q-20 66 -49 107.5t-94 41.5q-53 0 -94 -44t-58 -105z" />
<glyph unicode="&#xc3;" horiz-adv-x="1318" d="M86 46.5q-2 21.5 12 55.5l394 1061q45 121 126 121h95q31 0 66.5 -21.5t64.5 -95.5l409 -1081q10 -31 6 -48.5t-16 -26.5t-28.5 -12t-30.5 -3q-59 0 -86 19.5t-49 54.5q-23 35 -54.5 70.5t-56.5 47.5q-29 16 -76 24.5t-100 8.5h-197q-80 0 -146.5 -32.5t-94.5 -82.5 q-29 -47 -58.5 -78.5t-101.5 -31.5q-16 0 -33.5 3t-30 14.5t-14.5 33zM444 1470q0 25 31 43.5t84 18.5q35 0 61.5 -6t54 -14.5t58.5 -14.5t76 -6q59 0 82.5 4t23.5 -20q0 -25 -33.5 -43.5t-80.5 -18.5q-68 0 -128.5 20.5t-109.5 20.5q-18 0 -38.5 -2t-39 -2t-30 4t-11.5 16z M459 573q-35 -121 27.5 -181t185.5 -60q129 0 188.5 75.5t24.5 186.5l-66 209q-20 66 -49 104.5t-82 38.5t-97 -32.5t-67 -110.5z" />
<glyph unicode="&#xc4;" horiz-adv-x="1318" d="M86 46.5q-2 21.5 12 55.5l394 1061q43 115 126 115h95q31 0 66.5 -18.5t64.5 -92.5l409 -1081q10 -31 6 -48.5t-16 -26.5t-28.5 -12t-30.5 -3q-59 0 -86 19.5t-49 54.5q-23 35 -54.5 70.5t-56.5 47.5q-29 16 -76 26.5t-100 10.5l-197 -4q-80 0 -146.5 -32.5t-94.5 -82.5 q-29 -47 -58.5 -78.5t-101.5 -31.5q-16 0 -33.5 3t-30 14.5t-14.5 33zM236 1233q0 25 18 41t47 16t47.5 -16t18.5 -41t-18.5 -41t-47.5 -16t-47 16t-18 41zM466 490.5q5 -31.5 30.5 -49t69.5 -22.5t106 -5q129 0 178 34.5t14 145.5l-63 209q-20 66 -46 106.5t-79 40.5 t-83 -43t-48 -104l-70 -230q-14 -51 -9 -82.5zM973 1233q0 23 18.5 38t46.5 15q29 0 47.5 -15t18.5 -38t-18.5 -40t-47.5 -17t-47 17t-18 40z" />
<glyph unicode="&#xc5;" horiz-adv-x="1417" d="M98 68q0 33 19 75l385 897q10 23 25.5 50.5t25.5 42.5q31 47 42 73.5t11 67.5q0 29 -7 48t-14 37.5t-14.5 39t-7.5 47.5q0 53 40 91t120 38q74 0 117 -35t43 -90q0 -27 -7.5 -50.5t-16.5 -46t-16 -44t-7 -45.5q0 -29 5 -47.5t17 -40.5q20 -35 43 -71t39 -73l395 -913 q31 -72 -0.5 -99.5t-99.5 -27.5q-61 0 -95 16.5t-69 52.5l-57 60q-12 12 -27.5 24.5t-44.5 21.5t-77 15t-126 6q-82 0 -136 -3t-91 -14t-65.5 -33.5t-59.5 -61.5q-39 -47 -73.5 -65.5t-106.5 -18.5q-43 0 -76 13t-33 63zM548 469q7 -41 31.5 -69.5t61.5 -44t80 -15.5 q70 0 121 37t51 110q0 25 -3 56.5t-32 105.5q-6 18 -17.5 43t-26.5 46.5t-38.5 37t-54.5 15.5q-37 0 -71 -31t-54 -92l-39 -107q-16 -51 -9 -92zM633 1452q0 -37 23.5 -64.5t66.5 -27.5q37 0 65.5 25.5t28.5 68.5q0 35 -25.5 66.5t-68.5 31.5t-66.5 -31.5t-23.5 -68.5z" />
<glyph unicode="&#xc6;" horiz-adv-x="1970" d="M1 8.5q-19 20.5 11 69.5l553 942q43 74 73 119t55.5 69.5t51 32.5t58.5 8h1020q31 0 54.5 -10t23.5 -35t-23 -37t-59 -12h-381q-111 0 -180.5 -58.5t-69.5 -150.5q0 -242 266 -241h315q35 0 58.5 -11.5t23.5 -34.5t-22.5 -36t-59.5 -13h-311q-129 0 -201.5 -59 t-72.5 -207q0 -135 64.5 -200.5t221.5 -65.5h422q43 0 62.5 -13.5t19.5 -31.5q0 -29 -26.5 -39t-75.5 -10h-762q-43 0 -71.5 21.5t-34.5 68.5l-13 90q-4 29 -25.5 65.5t-39.5 53.5q-70 57 -221 57h-127q-72 0 -124.5 -12.5t-93.5 -40t-75.5 -73.5t-71.5 -116 q-31 -59 -70 -84.5t-82 -25.5q-41 0 -60 20.5zM524 594q0 -80 56.5 -124t136.5 -44q84 0 138 17.5t88 54.5t47.5 94t13.5 137v168q0 41 -8.5 78t-26 66.5t-42 47t-59.5 17.5q-41 0 -80.5 -28t-70.5 -83q-51 -90 -88 -150.5t-60.5 -103.5t-34 -76.5t-10.5 -70.5z" />
<glyph unicode="&#xc7;" horiz-adv-x="1253" d="M78 629q0 133 41 260t124 225t206.5 158.5t287.5 60.5q109 0 198 -30.5t151.5 -73.5t96.5 -88t34 -74q0 -41 -32 -65.5t-75 -24.5t-77 23.5t-73.5 52t-90 52t-128.5 23.5q-86 0 -159.5 -35.5t-127 -98t-84 -148.5t-30.5 -189q0 -254 108.5 -395t301.5 -141q72 0 123 21.5 t91 48t72.5 48t65.5 21.5q59 0 87 -21.5t28 -56.5q0 -27 -19.5 -58.5t-51.5 -61t-74 -56t-89 -45.5q-102 -41 -147 -69.5t-45 -77.5q0 -25 10 -52.5t41 -52.5q23 -18 47 -46t24 -62q0 -31 -22.5 -63t-59.5 -32q-20 0 -26 7.5t-6 19.5t4 27.5t4 31.5q0 31 -12.5 54.5 t-28.5 42t-31.5 31t-21.5 20.5q-16 18 -30.5 64t-51.5 83q-29 27 -70 45.5t-89 41t-102.5 57.5t-111.5 94q-51 53 -85 119.5t-55.5 135.5t-30.5 134.5t-9 114.5z" />
<glyph unicode="&#xc8;" horiz-adv-x="1052" d="M88 160v991q0 115 98 115h668h20.5t29 -3t25.5 -12.5t11 -25.5q0 -45 -94 -45h-340q-104 0 -173 -60.5t-69 -169.5q0 -106 72 -143t190 -41l275 -4q6 0 21.5 -3t31.5 -10.5t28.5 -19.5t12.5 -29q0 -25 -22.5 -45t-71.5 -20h-295q-104 0 -177 -65.5t-73 -200.5 q0 -129 65.5 -179.5t204.5 -50.5l381 -4q6 0 21.5 -3t32 -10t28.5 -19.5t12 -28.5q0 -29 -33.5 -47.5t-105.5 -18.5h-659q-68 0 -91.5 30t-23.5 122zM465 1573q0 23 17.5 30t39.5 7q35 0 69 -16.5t59.5 -40t41 -50t15.5 -49.5q0 -18 -8.5 -27.5t-36.5 -9.5q-25 0 -59 17.5 t-64.5 42t-52 51t-21.5 45.5z" />
<glyph unicode="&#xc9;" horiz-adv-x="1052" d="M106 160v991q0 115 99 115h667h20.5t29 -3t25.5 -12.5t11 -25.5q0 -53 -94 -54l-340 5q-104 0 -172.5 -58.5t-68.5 -167.5t70.5 -165t191.5 -60l274 2q6 0 21.5 -2t32 -10t28.5 -25.5t12 -50.5q0 -27 -15 -41t-38.5 -20.5t-48.5 -7.5t-43 -1h-221q-78 0 -132.5 -49 t-54.5 -151q0 -98 49.5 -148.5t153.5 -50.5h326q74 0 99.5 -13.5t25.5 -66.5q0 -61 -31 -71.5t-102 -10.5h-660q-68 0 -91.5 30t-23.5 122zM477 1462q0 12 11.5 35t33 46.5t50 39.5t61.5 16q72 0 72 -47q0 -14 -18.5 -35.5t-47.5 -42t-60.5 -35t-60.5 -14.5t-35 12.5 t-6 24.5z" />
<glyph unicode="&#xca;" horiz-adv-x="1052" d="M106 160v991q0 115 99 115h667h20.5t29 -3t25.5 -12.5t11 -25.5q0 -47 -94 -47h-340q-104 0 -176 -59.5t-72 -168.5t74 -166t195 -59l274 -4h21.5t32 -3t28.5 -12.5t12 -25.5q0 -45 -94 -45h-295q-104 0 -177 -65.5t-73 -200.5q0 -129 66 -200t205 -71l381 -4h21.5 t31.5 -3t28.5 -12t12.5 -26q0 -29 -34 -37t-105 -8h-660q-68 0 -91.5 30t-23.5 122zM305 1421q0 18 13.5 39t35 41.5t46 43t46.5 42.5q16 16 25.5 31.5t21 28t28 20.5t46.5 8q23 0 49.5 -17.5t53.5 -39.5q25 -20 53.5 -48t53 -56.5t41 -55.5t16.5 -45t-5.5 -33.5 t-27.5 -15.5q-23 0 -49.5 21.5t-56 48t-62.5 48t-70 21.5q-41 0 -70.5 -19.5t-54 -44t-47 -44t-49.5 -19.5q-25 0 -31 10.5t-6 34.5z" />
<glyph unicode="&#xcb;" horiz-adv-x="1052" d="M106 160v991q0 115 99 115h667h20.5t29 -3t25.5 -12.5t11 -25.5q0 -45 -94 -45h-340q-104 0 -169.5 -60.5t-65.5 -169.5t67.5 -165t188.5 -60l274 -4q6 0 21.5 -2t32 -7t28.5 -15.5t12 -26.5q0 -25 -22.5 -40.5t-71.5 -15.5h-295q-104 0 -173.5 -55t-69.5 -190 q0 -129 62.5 -200t201.5 -71l381 -4h21.5t31.5 -3t28.5 -12t12.5 -26q0 -29 -34 -37t-105 -8h-660q-68 0 -91.5 30t-23.5 122zM305 1485q0 25 18.5 41t47.5 16t47 -16t18 -41t-18.5 -41.5t-46.5 -16.5q-29 0 -47.5 16.5t-18.5 41.5zM729 1479q0 23 21.5 41t50.5 18t47 -15 t18 -38t-18.5 -41.5t-46.5 -18.5q-29 0 -50.5 15.5t-21.5 38.5z" />
<glyph unicode="&#xcc;" horiz-adv-x="356" d="M-10 1552q0 23 17.5 30t39.5 7q35 0 69 -16.5t59.5 -40t40.5 -49.5t15 -49q0 -18 -11 -24.5t-40 -6.5q-25 0 -57.5 16.5t-62 40t-50 49t-20.5 43.5zM119 215v907q0 59 7 89t62 30q25 0 39.5 -3t22.5 -22.5t10 -60.5t2 -119v-907q0 -59 -9 -89t-56 -30q-31 0 -47.5 5 t-22.5 26.5t-7 62.5t-1 111z" />
<glyph unicode="&#xcd;" horiz-adv-x="356" d="M104 1118q0 59 10.5 89t65.5 30q25 0 38 -3t19.5 -22.5t8.5 -60.5t2 -119l6 -901q0 -59 -9 -89t-57 -30q-31 0 -46 5.5t-22 27t-8 62t-1 110.5zM119 1475q0 12 10 33.5t30.5 41t48.5 34.5t60 15q35 0 41 -12t6 -28q0 -10 -14 -32t-35.5 -43.5t-49.5 -36.5t-56 -15 q-29 0 -35 15t-6 28z" />
<glyph unicode="&#xce;" horiz-adv-x="356" d="M-61 1391q0 18 13 38.5t34.5 41t46 43t47.5 42.5q16 16 25.5 32t20.5 28t27.5 20.5t47.5 8.5q20 0 37.5 -11.5t32 -27t28.5 -30.5t29 -26q59 -41 99 -84t40 -84q0 -18 -5 -33.5t-28 -15.5t-49.5 21.5t-56 48.5t-62.5 48.5t-69 21.5q-41 0 -71 -19.5t-54.5 -44.5t-47 -44 t-49.5 -19q-25 0 -30.5 10t-5.5 35zM104 1122q0 59 10.5 89t65.5 30q25 0 39 -3t22.5 -22.5t10.5 -60.5t2 -119v-901q0 -59 -9 -89t-57 -30q-31 0 -46 5.5t-22 27t-8 62.5t-1 110z" />
<glyph unicode="&#xcf;" horiz-adv-x="356" d="M-80 1452q0 25 18.5 41t47.5 16t44 -16t15 -41t-15.5 -41t-43.5 -16q-29 0 -47.5 16t-18.5 41zM119 227v901q0 59 7 89t62 30q25 0 39.5 -3t22.5 -22.5t10 -60.5t2 -119v-901q0 -59 -9 -88.5t-56 -29.5q-31 0 -47.5 5t-22.5 26.5t-7 62.5t-1 110zM350 1452q0 23 18.5 38 t47.5 15t47 -15t18 -38t-18.5 -38t-46.5 -15q-29 0 -47.5 15.5t-18.5 37.5z" />
<glyph unicode="&#xd0;" horiz-adv-x="1327" d="M-37 633q0 41 33 57.5t57 16.5q35 0 76 18t53 47q10 23 15.5 69t7.5 101t3 111.5t1 99.5q0 35 17.5 58.5t52.5 23.5h421q139 0 248 -40t185.5 -113.5t116.5 -181t40 -243.5q0 -156 -31.5 -278.5t-108.5 -205.5t-207 -127t-329 -44h-323q-41 0 -61.5 26.5t-20.5 67.5 q10 96 12 180q0 49 -2 80t-7 59.5t-13.5 51t-22.5 35.5q-31 25 -55.5 31t-59.5 6q-55 0 -76.5 25.5t-21.5 68.5zM352 387q0 -49 18.5 -101.5t54.5 -95.5t88 -70.5t122 -27.5q123 0 218 39t159.5 109.5t97.5 167t33 208.5q0 111 -31 207.5t-94.5 168t-158.5 112.5t-224 41 q-84 0 -138.5 -32t-86 -83t-45 -117.5t-13.5 -136.5q0 -20 21.5 -33.5t50.5 -21.5t56.5 -11t39.5 -3q74 0 111 -26t37 -60q0 -47 -49.5 -66.5t-126.5 -19.5q-18 0 -42 -6.5t-45.5 -24t-37 -46t-15.5 -71.5z" />
<glyph unicode="&#xd1;" horiz-adv-x="1191" d="M115 129v995q0 94 61 95h53q37 0 66 -15.5t53 -62.5l266 -463q41 -70 73 -118t59.5 -75.5t55 -40t58.5 -12.5q78 0 119 64.5t41 156.5v471q0 86 53 86q49 0 49 -118v-996q0 -94 -78 -94h-32q-37 0 -69 19.5t-54 54.5l-332 561q-35 59 -80 99t-92 40q-84 0 -126 -58.5 t-42 -166.5v-438q0 -43 -9 -73t-44 -30q-25 0 -37 25.5t-12 93.5zM440 1444q0 25 31 43t84 18q35 0 62.5 -6t55 -14t59.5 -14.5t77 -6.5q59 0 82.5 4.5t23.5 -20.5t-33.5 -44.5t-80.5 -19.5q-33 0 -66 7.5t-63.5 16.5t-59 16.5t-53.5 7.5q-18 0 -38.5 -3.5t-39 -3.5t-30 3.5 t-11.5 15.5z" />
<glyph unicode="&#xd2;" horiz-adv-x="1441" d="M74 639q0 145 48 268t132 214t198.5 142.5t247.5 51.5q168 0 293 -55.5t208 -147.5t125 -215t42 -258q0 -145 -47 -270t-132 -216.5t-203 -142.5t-261 -51q-150 0 -270.5 52t-205.5 143.5t-130 216.5t-45 268zM266 651q0 -121 30 -222t85 -174t137 -113t187 -40 q102 0 189 38t149.5 107.5t97.5 169t35 222.5q0 115 -30 214t-86 173t-139 117t-190 43q-96 0 -181 -38t-147.5 -106.5t-99.5 -168t-37 -222.5zM575 1591q0 23 17.5 30t40.5 7q35 0 71.5 -17.5t65.5 -42t47.5 -52t18.5 -50.5q0 -18 -8.5 -27t-36.5 -9q-25 0 -62 18t-70.5 44 t-58.5 53.5t-25 45.5z" />
<glyph unicode="&#xd3;" horiz-adv-x="1441" d="M74 639q0 145 48 268t132 214t198.5 142.5t247.5 51.5q168 0 293 -55.5t208 -147.5t125 -215t42 -258q0 -145 -47 -270t-132 -216.5t-203 -142.5t-261 -51q-150 0 -270.5 52t-205.5 143.5t-130 216.5t-45 268zM262 651q0 -121 34 -223t92 -176t140 -115t177 -41 q102 0 189 39t149.5 109.5t97.5 171t35 223.5q0 90 -28 186.5t-84 175t-140 130t-199 51.5q-96 0 -181 -37t-147.5 -105.5t-98.5 -167t-36 -221.5zM608 1456q0 12 13.5 34.5t37 44t54 37t63.5 15.5q35 0 44 -12.5t9 -28.5q0 -10 -17 -31.5t-45 -43t-58.5 -37t-59.5 -15.5 t-35 12.5t-6 24.5z" />
<glyph unicode="&#xd4;" horiz-adv-x="1441" d="M74 639q0 145 48 268t132 214t198.5 142.5t247.5 51.5q168 0 293 -55.5t208 -147.5t125 -215t42 -258q0 -145 -47 -270t-132 -216.5t-203 -142.5t-261 -51q-150 0 -270.5 52t-205.5 143.5t-130 216.5t-45 268zM266 651q0 -121 30 -222t87 -174t138 -113t184 -40 q102 0 189 38t149.5 107.5t97.5 169t35 222.5q0 90 -28 186.5t-84 176t-140 131t-199 51.5q-96 0 -180 -37t-145.5 -106.5t-97.5 -168t-36 -221.5zM446 1434q0 18 13.5 38.5t35 41t46 43t47.5 42.5q16 16 25.5 32t20.5 28t27.5 20.5t47.5 8.5q20 0 36.5 -10.5t31 -26 t26.5 -30.5t26 -28q29 -23 54.5 -41t46 -37.5t33 -40t12.5 -49.5q0 -18 -5 -33.5t-28 -15.5t-49.5 21.5t-56 48.5t-62.5 48.5t-69 21.5q-39 0 -69 -19.5t-55.5 -44.5t-48 -44t-49.5 -19q-25 0 -31 10t-6 35z" />
<glyph unicode="&#xd5;" horiz-adv-x="1441" d="M74 639q0 145 48 268t132 214t198.5 142.5t247.5 51.5q168 0 293 -55.5t208 -147.5t125 -215t42 -258q0 -145 -47 -270t-132 -216.5t-203 -142.5t-261 -51q-150 0 -270.5 52t-205.5 143.5t-130 216.5t-45 268zM266 664q0 -121 32 -224.5t89 -178.5t137 -117t174 -42 q102 0 189.5 37t150 105.5t97 167t34.5 221.5q0 90 -24.5 186t-77.5 175t-134 129.5t-196 50.5q-96 0 -182 -34t-150.5 -98.5t-101.5 -159.5t-37 -218zM506 1477q0 25 30.5 43t84.5 18q35 0 61.5 -6t54 -14.5t58 -14.5t75.5 -6q59 0 83 4t24 -20q0 -25 -34 -41.5t-81 -16.5 q-68 0 -128 20.5t-109 20.5q-18 0 -39 -3t-39.5 -3t-29.5 3t-11 16z" />
<glyph unicode="&#xd6;" horiz-adv-x="1429" d="M43 1225q0 37 28.5 61.5t69.5 24.5t70 -24.5t29 -61.5t-29 -61.5t-70 -24.5t-69.5 24.5t-28.5 61.5zM74 639q0 145 48 268t132 214t198.5 142.5t247.5 51.5q168 0 293 -55.5t208 -147.5t125 -215t42 -258q0 -145 -47 -270t-132 -216.5t-203 -142.5t-261 -51 q-150 0 -270.5 52t-205.5 143.5t-130 216.5t-45 268zM266 651q0 -121 33 -222t91.5 -174t139 -114t175.5 -41q102 0 189 38t149.5 108.5t97.5 170t35 222.5q0 90 -28 186.5t-84 175t-140 130t-199 51.5q-96 0 -180 -37t-145.5 -105.5t-97.5 -167t-36 -221.5zM1194 1227 q0 33 31.5 58.5t72.5 25.5t70 -25.5t29 -58.5t-29 -59.5t-70 -26.5t-72.5 26.5t-31.5 59.5z" />
<glyph unicode="&#xd8;" horiz-adv-x="1372" d="M45 631q0 188 62.5 318t156.5 210t206 116t210 36q88 0 157.5 -17.5t123 -39t91 -43t62.5 -31.5q29 -10 55.5 -11.5t48 -0.5t36 2t20.5 -7q8 -8 6 -23.5t-7 -35t-9 -45t-2 -55.5q4 -27 15 -62t23.5 -80t21.5 -100t9 -127q0 -150 -47 -274.5t-132 -214t-204 -138.5 t-264 -49q-82 0 -148.5 16.5t-121 38t-95 44t-69.5 32.5q-16 6 -39 6t-44.5 -1t-38.5 -1t-26 8q-6 6 -3 23.5t8.5 39t10.5 44t1 41.5q-4 31 -16.5 65.5t-24.5 79.5t-22.5 102.5t-10.5 133.5zM270 659q0 -111 40 -157.5t100 -46.5q23 0 45 6t55 27.5t81 60.5t122 102 q129 117 187 193t58 123q0 68 -68.5 122t-189.5 54q-94 0 -174 -35t-136 -99.5t-88 -152.5t-32 -197zM451 299q0 -74 61 -127t188 -53q61 0 136 26.5t139.5 85t107.5 151.5t43 228q0 90 -39.5 137.5t-95.5 47.5q-25 0 -47 -5.5t-53 -23.5t-78 -57t-121 -107 q-121 -111 -181 -179.5t-60 -123.5z" />
<glyph unicode="&#xd9;" horiz-adv-x="1228" d="M90 483v660q0 59 15.5 95t50.5 36h53q37 0 52 -33t15 -98l7 -676q0 -82 24.5 -150.5t69.5 -117.5t107.5 -77t138.5 -28q168 0 253 103.5t87 269.5l6 676q0 66 14 100.5t74 34.5q27 0 45 -6t30.5 -25.5t17.5 -57.5t5 -104v-602q0 -88 -24.5 -179t-85 -166t-163 -123 t-259.5 -48q-147 0 -249 42t-165.5 113t-91 164t-27.5 197zM457 1591q0 23 17.5 30t39.5 7q35 0 69.5 -16.5t62.5 -41t44.5 -52t16.5 -50.5q0 -18 -8.5 -27t-36.5 -9q-25 0 -60 18t-67.5 43t-55 52.5t-22.5 45.5z" />
<glyph unicode="&#xda;" horiz-adv-x="1228" d="M90 483v660q0 59 15.5 95t50.5 36h53q74 0 74 -131v-676q0 -82 24.5 -150.5t68.5 -117.5t107.5 -77t139.5 -28q154 0 247 98.5t93 274.5v676q0 66 17 100.5t77 34.5q27 0 45 -6t30.5 -25.5t17.5 -57.5t5 -104v-602q0 -88 -24.5 -179t-85 -166t-163 -123t-259.5 -48 q-147 0 -249 42t-165.5 113t-91 164t-27.5 197zM578 1456q0 12 14 34.5t38.5 46.5t56.5 40t65 16q35 0 44 -12.5t9 -28.5q0 -10 -18.5 -32.5t-47 -45t-60.5 -39t-61 -16.5t-34.5 12.5t-5.5 24.5z" />
<glyph unicode="&#xdb;" horiz-adv-x="1228" d="M90 483v660q0 59 15.5 95t50.5 36h53q37 0 52 -33t15 -98l7 -676q2 -166 89 -269.5t251 -103.5q78 0 140 28t107 77t69 117.5t24 150.5l-7 676q0 66 20.5 100.5t80.5 34.5q27 0 45 -6t30.5 -25.5t17.5 -57.5t5 -104v-602q0 -88 -24.5 -179t-85 -166t-163 -123t-259.5 -48 q-147 0 -249 42t-165.5 113t-91 164t-27.5 197zM379 1403q0 18 13.5 38.5t35 41t46 43t46.5 43.5q16 16 25.5 31.5t21 27.5t27.5 20.5t47 8.5q20 0 36.5 -11.5t30 -26.5t27 -30.5t27.5 -25.5q59 -41 102 -77t43 -91q0 -18 -5 -33.5t-28 -15.5t-50 21.5t-58 48t-64.5 48 t-70.5 21.5q-41 0 -71 -19.5t-52.5 -44t-44 -44t-47.5 -19.5q-25 0 -31 10t-6 35z" />
<glyph unicode="&#xdc;" horiz-adv-x="1228" d="M51 1270q0 49 38 81.5t93 32.5t93 -32.5t38 -81.5t-37.5 -82t-93.5 -33q-55 0 -93 33t-38 82zM90 483v455q0 59 15.5 95t50.5 36h53q74 0 74 -131v-471q0 -82 24.5 -150.5t68.5 -117.5t107.5 -77t139.5 -28q78 0 140 28t106 77t69 117.5t25 150.5v471q0 66 17 100.5 t77 34.5q27 0 45 -6t30.5 -25.5t17.5 -57.5t5 -103v-398q0 -88 -24.5 -179t-85 -166t-163 -123t-259.5 -48q-147 0 -249 42t-165.5 113t-91 164t-27.5 197zM915 1270q0 43 38 78.5t94 35.5q55 0 93 -35.5t38 -78.5t-38 -75t-93 -32t-93.5 32t-38.5 75z" />
<glyph unicode="&#xdd;" horiz-adv-x="1210" d="M16 1212.5q-2 28.5 13.5 44t43 19.5t50.5 4q66 0 103.5 -14.5t68.5 -47t61.5 -87t81.5 -134.5q35 -55 76 -91t84 -36t82 33t70 82l127 197q43 66 91 80t113 14q47 0 73 -8t26 -45q0 -25 -9.5 -44.5t-40.5 -62.5l-290 -409q-23 -31 -44.5 -71t-37.5 -89q-10 -35 -15.5 -75 t-5.5 -69l-4 -360q0 -18 -6 -39.5t-21.5 -40t-40 -31t-63.5 -12.5q-72 0 -103.5 32t-31.5 91v332q0 90 -22.5 165.5t-51.5 116.5l-340 476q-35 51 -37 79.5zM539 1133q0 12 11 34.5t32.5 44t50.5 37t61 15.5q35 0 44.5 -12.5t9.5 -28.5q0 -10 -15.5 -32t-40 -43.5 t-54.5 -36.5t-58 -15q-29 0 -35 12t-6 25z" />
<glyph unicode="&#xde;" horiz-adv-x="1232" d="M106 102v1049q0 49 19 69.5t80 20.5q53 0 71.5 -31.5t18.5 -62.5q0 -78 7 -123t45 -67.5t119 -27.5t226 -5q262 0 377 -72t115 -240q0 -113 -56.5 -182.5t-145.5 -108t-195.5 -53t-208.5 -14.5q-106 0 -164 1t-84.5 -14.5t-30.5 -54.5t-4 -116q0 -31 -18.5 -63t-71.5 -32 q-61 0 -80 28t-19 99zM295 602q0 -70 12 -118t42 -75.5t81 -40t127 -12.5h107q68 0 127 18.5t102 48.5t68.5 68.5t25.5 81.5q0 115 -80 193t-256 78h-119q-61 0 -106 -10.5t-73.5 -37t-43 -73.5t-14.5 -121z" />
<glyph unicode="&#xdf;" horiz-adv-x="1015" d="M86 156v639q0 96 11.5 181t52 147.5t119.5 98t214 35.5q127 0 201 -30.5t110.5 -73.5t47 -91t10.5 -83q0 -43 -9 -72.5t-21.5 -55.5t-21.5 -52.5t-9 -65.5q0 -53 24.5 -88t53 -75t53 -96.5t24.5 -154.5q0 -190 -82 -281t-209 -91q-41 0 -65.5 7t-24.5 30q0 29 37 44 t80 49t80 98.5t37 189.5q0 104 -28 161.5t-61.5 90t-62.5 52t-29 48.5q0 20 16.5 39.5t37 46t37 63.5t16.5 92q0 43 -15.5 86t-46 77t-74.5 54.5t-102 20.5q-61 0 -108 -26.5t-80 -72.5t-49.5 -104.5t-16.5 -124.5v-757q0 -135 -73 -136q-27 0 -42.5 15.5t-22.5 40t-8 57.5 t-1 68z" />
<glyph unicode="&#xe0;" d="M45 211q0 63 26.5 112.5t72.5 85t108.5 58t132.5 31.5q145 18 222 70.5t77 117.5q0 47 -15.5 76t-43 46t-62.5 23.5t-76 6.5h-32q-45 0 -79 -9.5t-63.5 -21.5t-57.5 -21.5t-62 -9.5q-18 0 -34 2t-16 27q0 31 28 55.5t73 43t100 27.5t111 9q164 0 246.5 -30.5t116.5 -98.5 t36 -173.5t2 -254.5v-299q0 -82 -74 -82q-31 0 -81 14.5t-99 14.5q-45 0 -77.5 -9.5t-62.5 -19.5t-64 -19.5t-83 -9.5q-55 0 -104 16.5t-86 47.5t-58.5 75t-21.5 99zM205 240q0 -39 16.5 -73t44 -58.5t64.5 -39t76 -14.5q59 0 110 19.5t91 54.5t62.5 82t22.5 102 q0 72 -50 122t-134 50q-51 0 -104.5 -19.5t-97.5 -53t-72.5 -78.5t-28.5 -94zM332 1227q0 23 17.5 30t39.5 7q35 0 69 -16.5t59.5 -40t40.5 -50t15 -49.5q0 -18 -8 -27.5t-37 -9.5q-25 0 -58.5 17.5t-64 42t-52 51t-21.5 45.5z" />
<glyph unicode="&#xe1;" d="M51 211q0 63 26.5 117.5t73 95.5t109 68.5t131.5 35.5q145 18 222 55.5t77 102.5q0 92 -58.5 150.5t-137.5 58.5h-33q-45 0 -79 -18.5t-63.5 -41t-57.5 -41t-62 -18.5q-18 0 -33.5 2t-15.5 27q0 31 27.5 55.5t72.5 43t100.5 27.5t110.5 9q164 0 247 -30.5t116.5 -98.5 t35.5 -173.5t2 -254.5v-299q0 -82 -74 -82q-31 0 -81 14.5t-99 14.5q-45 0 -77.5 -9.5t-62.5 -19.5t-63.5 -19.5t-82.5 -9.5q-55 0 -104.5 16.5t-86.5 47.5t-58.5 75t-21.5 99zM213 240q0 -39 16.5 -74t43 -60.5t63.5 -40t76 -14.5q59 0 109 20.5t89 55.5t60.5 83t21.5 103 q0 72 -47 112t-131 40q-51 0 -104.5 -16.5t-97.5 -47t-71.5 -71.5t-27.5 -90zM414 1100q0 12 11 34.5t32.5 44t50.5 37t61 15.5q35 0 44.5 -12.5t9.5 -28.5q0 -10 -15.5 -31.5t-40 -43t-54.5 -37t-58 -15.5q-29 0 -35 12t-6 25z" />
<glyph unicode="&#xe2;" d="M33 211q0 63 26.5 112.5t72.5 85t108.5 58t132.5 31.5q145 18 222 70.5t77 117.5q0 92 -58.5 152.5t-138.5 60.5h-33q-45 0 -78.5 -19.5t-63.5 -42t-57.5 -42t-62.5 -19.5q-18 0 -33.5 2t-15.5 27q0 31 27.5 55.5t72.5 43t100.5 27.5t110.5 9q164 0 247 -30.5t117 -98.5 t36 -173.5t2 -254.5v-299q0 -82 -74 -82q-31 0 -81 14.5t-99 14.5q-45 0 -78 -9.5t-62.5 -19.5t-63.5 -19.5t-83 -9.5q-55 0 -104 16.5t-86 47.5t-58.5 75t-21.5 99zM197 240q0 -80 58 -124t138 -44q59 0 110.5 16t91.5 47t62.5 73t22.5 93q0 72 -47 101.5t-131 29.5 q-51 0 -104.5 -11t-98.5 -36t-73.5 -60.5t-28.5 -84.5zM215 1124q0 18 13.5 39t35 41.5t46 43t46.5 42.5q16 16 25.5 31.5t21 28t27.5 20.5t47 8q20 0 40 -14t36 -32.5t32.5 -37t30.5 -28.5q59 -41 96.5 -71t37.5 -85q0 -18 -8.5 -30.5t-30.5 -12.5q-23 0 -49.5 22.5 t-56.5 50t-62.5 50t-69.5 22.5q-41 0 -70.5 -20.5t-54 -46t-47 -46t-49.5 -20.5q-25 0 -31 10.5t-6 34.5z" />
<glyph unicode="&#xe3;" d="M45 211q0 63 26.5 118.5t72.5 98.5t108.5 72.5t132.5 38.5q145 18 222 60t77 108q0 92 -58.5 142t-138.5 50h-32q-45 0 -79 -19.5t-63.5 -42t-57.5 -42t-62 -19.5q-18 0 -34 2t-16 27q0 31 28 55.5t73 43t100 27.5t111 9q164 0 246.5 -30.5t116.5 -98.5t36 -173.5 t2 -254.5v-299q0 -82 -74 -82q-31 0 -81 3t-99 3q-45 0 -77.5 -5t-62.5 -12t-64 -12.5t-83 -5.5q-55 0 -104 16.5t-86 47.5t-58.5 75t-21.5 99zM209 240q0 -80 58.5 -134.5t138.5 -54.5q59 0 110 20.5t91 55.5t62.5 83t22.5 103q0 72 -50 101.5t-134 29.5q-51 0 -104.5 -13 t-96.5 -39.5t-70.5 -64.5t-27.5 -87zM250 1120q0 25 30.5 43.5t84.5 18.5q35 0 61.5 -6.5t54 -14.5t58 -14t75.5 -6q59 0 83 4t24 -21t-34 -41t-81 -16q-68 0 -128 20.5t-109 20.5q-18 0 -39 -3t-39.5 -3t-29.5 3t-11 15z" />
<glyph unicode="&#xe4;" d="M39 211q0 63 26.5 119.5t72.5 101.5t108.5 75t132.5 38q145 18 222 47t77 94q0 92 -58.5 141.5t-138.5 49.5h-32q-45 0 -79 -15.5t-64 -35t-57.5 -35t-62.5 -15.5q-18 0 -33.5 2t-15.5 27q0 31 28 55.5t73 43t100 27.5t111 9q164 0 246.5 -30.5t116.5 -98.5t36 -173.5 t2 -254.5v-299q0 -82 -74 -82q-31 0 -81 14.5t-99 14.5q-45 0 -78 -9.5t-62.5 -19.5t-63.5 -19.5t-83 -9.5q-55 0 -104 16.5t-86 47.5t-58.5 75t-21.5 99zM201 1141q0 25 18.5 41t46.5 16q29 0 47.5 -16t18.5 -41t-18.5 -41.5t-47.5 -16.5t-47 16.5t-18 41.5zM203 227 q0 -39 17.5 -71.5t47 -56t67.5 -36t77 -12.5q59 0 109 20.5t87 55.5t57.5 83t20.5 103q0 72 -50 122t-134 50q-51 0 -104.5 -21.5t-96.5 -58t-70.5 -83t-27.5 -95.5zM631 1143q0 23 18.5 38t46.5 15q29 0 47.5 -15t18.5 -38t-18.5 -41.5t-47.5 -18.5t-47 18.5t-18 41.5z" />
<glyph unicode="&#xe5;" d="M45 211q0 63 26.5 112.5t72.5 85t108.5 58t132.5 31.5q145 18 219 70.5t74 117.5q0 92 -55.5 152.5t-135.5 60.5h-32q-45 0 -79 -19.5t-63.5 -42t-57.5 -42t-62 -19.5q-18 0 -34 2t-16 27q0 31 28 57.5t73 47t100 31.5t111 11q164 0 246.5 -32.5t116.5 -102t36 -177.5 t2 -257v-299q0 -82 -74 -82q-31 0 -81 14.5t-99 14.5q-45 0 -77.5 -9.5t-62.5 -19.5t-64 -19.5t-83 -9.5q-55 0 -104 16.5t-86 47.5t-58.5 75t-21.5 99zM209 246q0 -39 16.5 -75t45 -62.5t65.5 -42t76 -15.5q59 0 108 20.5t84 55.5t55.5 83t20.5 103q0 72 -53.5 116 t-137.5 44q-51 0 -101 -17.5t-90 -47t-64.5 -71.5t-24.5 -91zM346 1235q0 61 43 108.5t117 47.5q66 0 111 -47.5t45 -108.5q0 -35 -14.5 -65.5t-36 -52t-49 -34t-56.5 -12.5q-33 0 -62.5 14.5t-51 38t-34 53t-12.5 58.5zM414 1223q0 -33 25.5 -59.5t66.5 -26.5 q37 0 64.5 26.5t27.5 63.5q0 29 -24.5 58.5t-63.5 29.5q-47 0 -71.5 -28.5t-24.5 -63.5z" />
<glyph unicode="&#xe6;" horiz-adv-x="1658" d="M66 258q0 129 93 199.5t259 87.5q154 16 214 66.5t60 113.5q0 61 -54 110.5t-134 49.5q-41 0 -76 -14.5t-66.5 -31t-61.5 -30.5t-62 -14q-31 0 -48.5 8t-17.5 37q0 55 77 101t218 46q66 0 117 -11t95 -25.5t82 -26t75 -11.5q35 0 71.5 11.5t78.5 26t90 25.5t104 11 q115 0 196.5 -41t134 -100.5t78 -126t25.5 -117.5t-30 -76.5t-134 -25.5q-76 0 -117 3t-62.5 6t-35.5 5t-39 2q-111 0 -182.5 -47t-71.5 -121q0 -45 22.5 -89t60.5 -78t87 -54.5t100 -20.5q57 0 97.5 15.5t72 34t59 34t58.5 15.5q41 0 41 -37q0 -23 -25.5 -52.5t-71.5 -56 t-106.5 -45t-132.5 -18.5q-61 0 -115.5 17.5t-103.5 38t-92 37.5t-82 17q-45 0 -88 -17t-92 -37.5t-108.5 -38t-137.5 -17.5q-141 0 -230 72.5t-89 189.5zM258 279q0 -33 15.5 -64t40 -54.5t56 -36.5t64.5 -13q55 0 104.5 21.5t86.5 55t59.5 76.5t24.5 88q4 66 -38 113 t-126 47q-45 0 -96.5 -19.5t-93.5 -52t-69.5 -74.5t-27.5 -87zM950 700q0 -39 19.5 -69.5t51.5 -52t75 -31.5t88 -10q43 0 82 11t69.5 31.5t48 47t17.5 57.5q0 39 -17.5 75t-48 63.5t-72.5 45t-92 17.5q-39 0 -78.5 -15.5t-71.5 -40t-51.5 -58.5t-19.5 -71z" />
<glyph unicode="&#xe7;" horiz-adv-x="956" d="M59 446q0 109 34 201t97.5 161t154.5 107.5t206 38.5q78 0 140.5 -16t108.5 -41t70.5 -53.5t24.5 -52.5q0 -31 -19.5 -46.5t-41.5 -15.5q-45 0 -73 12.5t-52.5 26.5t-55 26.5t-82.5 12.5q-63 0 -116.5 -28.5t-91 -79t-58 -117t-20.5 -144.5q0 -76 22.5 -142.5 t61.5 -115.5t92 -77.5t114 -28.5q51 0 88 13t67 29.5t55.5 30t52.5 13.5q37 0 49 -10.5t12 -26.5q0 -55 -47 -89t-121 -71t-108.5 -65.5t-34.5 -81.5q0 -37 16.5 -61.5t73.5 -73.5q25 -18 33 -36t8 -42q0 -29 -17.5 -59.5t-60.5 -30.5q-33 0 -29 16t4 65q0 16 -1 33t-11 33 q-16 29 -45 56.5t-41 45.5q-12 23 -19 49.5t-38 73.5q-14 20 -37 34.5t-50.5 29t-59 30t-62.5 37.5q-92 66 -142.5 171.5t-50.5 258.5z" />
<glyph unicode="&#xe8;" horiz-adv-x="989" d="M72 440q0 227 114.5 363.5t335.5 136.5q133 0 216 -46t131.5 -110.5t65.5 -130t17 -106.5q0 -37 -20.5 -55.5t-69.5 -18.5l-258 4q-190 0 -267 -40t-77 -144q0 -45 23.5 -87t61.5 -73t88 -49t102 -18q49 0 84.5 5t58.5 19l106 64q16 8 25.5 16t40.5 8q41 0 40 -32.5 t-43 -71.5t-123 -72t-202 -33q-100 0 -184 34t-142.5 95.5t-91 148.5t-32.5 193zM281 686q0 -66 53 -107.5t145 -41.5h88q37 0 72 11t61.5 30.5t43 45t16.5 52.5q0 70 -50.5 125t-160.5 55q-117 0 -192.5 -49t-75.5 -121zM457 1217q0 23 17.5 29.5t39.5 6.5q35 0 68.5 -16 t59.5 -39.5t41 -50t15 -49.5q0 -18 -8 -27.5t-37 -9.5q-25 0 -58.5 17.5t-64 42t-52 51t-21.5 45.5z" />
<glyph unicode="&#xe9;" horiz-adv-x="989" d="M55 440q0 227 115 363.5t336 136.5q133 0 216 -46t131 -110.5t65.5 -130t17.5 -106.5q0 -37 -20.5 -55.5t-69.5 -18.5l-258 4q-190 0 -267 -40t-77 -144q0 -45 23.5 -89t61.5 -78t88 -54.5t101 -20.5q49 0 88 8.5t62 20.5l94 51q18 10 29.5 28.5t42.5 18.5 q41 0 39.5 -32.5t-43.5 -71.5t-122.5 -72t-201.5 -33q-100 0 -184 34t-142.5 95.5t-91.5 148.5t-33 193zM264 670q0 -37 16.5 -57.5t46 -31t69.5 -12.5t85 -2h70q37 0 71.5 3t61.5 12.5t43 27t16 47.5q0 39 -15 75t-44 63.5t-72 45t-98 17.5q-117 0 -183.5 -54t-66.5 -134z M424 1100q0 12 11 34.5t32.5 44t50.5 37t62 15.5q35 0 44 -12.5t9 -28.5q0 -10 -15.5 -31.5t-40 -43t-54 -37t-58.5 -15.5t-35 12t-6 25z" />
<glyph unicode="&#xea;" horiz-adv-x="989" d="M55 440q0 227 115 363.5t336 136.5q133 0 216 -46t131 -110.5t65.5 -130t17.5 -106.5q0 -37 -20.5 -65.5t-69.5 -28.5l-258 4q-94 0 -161 -6.5t-106.5 -23.5t-58 -49t-18.5 -85q0 -45 23.5 -89t61.5 -78t88 -54.5t101 -20.5q102 0 144 29l106 70q16 10 25.5 19t40.5 9 q41 0 39.5 -32.5t-43.5 -71.5t-122.5 -72t-201.5 -33q-100 0 -184 34t-142.5 95.5t-91.5 148.5t-33 193zM240 1077q0 18 13 39t34.5 41.5t46 43t47.5 42.5q16 16 25.5 31.5t20.5 28t27.5 20.5t47.5 8q20 0 34.5 -8t25.5 -19.5t22.5 -24.5t25.5 -24q59 -41 108.5 -86 t49.5 -100q0 -18 -5 -33.5t-28 -15.5q-18 0 -42.5 22.5t-54.5 50t-63.5 50t-70.5 22.5q-41 0 -72 -20.5t-57.5 -46t-49 -46t-49.5 -20.5q-25 0 -30.5 10.5t-5.5 34.5zM264 670q0 -74 62.5 -93.5t154.5 -13.5l101 6q74 4 111.5 15.5t37.5 72.5q0 39 -16.5 75t-46 63.5 t-73.5 45t-99 17.5q-117 0 -174.5 -54t-57.5 -134z" />
<glyph unicode="&#xeb;" horiz-adv-x="989" d="M55 440q0 227 115 363.5t336 136.5q133 0 216 -46t131 -110.5t65.5 -130t17.5 -106.5q0 -37 -20.5 -55.5t-69.5 -18.5l-258 4q-190 4 -267 -38t-77 -146q0 -45 23.5 -89t61.5 -78t88 -54.5t101 -20.5q102 0 144 29l106 70q16 10 25.5 19t40.5 9q41 0 39.5 -32.5 t-43.5 -71.5t-122.5 -72t-201.5 -33q-100 0 -184 34t-142.5 95.5t-91.5 148.5t-33 193zM258 1130q0 25 18.5 41.5t47.5 16.5t47 -16.5t18 -41.5t-18.5 -38t-46.5 -13q-29 0 -47.5 13.5t-18.5 37.5zM264 651q0 -74 53.5 -111.5t145.5 -37.5h88q37 0 71.5 13t61.5 36.5 t43 52.5t16 60q0 78 -59 136t-170 58q-57 0 -104.5 -17.5t-79 -46t-49 -65.5t-17.5 -78zM688 1130q0 23 18.5 38.5t47.5 15.5t47 -15.5t18 -38.5t-18.5 -41t-46.5 -18q-29 0 -47.5 18.5t-18.5 40.5z" />
<glyph unicode="&#xec;" horiz-adv-x="411" d="M72 1241q0 23 11 30t34 7q35 0 68.5 -16.5t59 -40t41 -50t15.5 -49.5q0 -18 -11 -30.5t-40 -12.5q-25 0 -55.5 18.5t-58 44t-46 53.5t-18.5 46zM119 199v581q0 74 18.5 104.5t71.5 30.5q37 0 55.5 -6t26.5 -26.5t9 -59.5t1 -104l6 -590q0 -143 -86 -143q-33 0 -53.5 7 t-31.5 28.5t-14 64.5t-3 113z" />
<glyph unicode="&#xed;" horiz-adv-x="411" d="M119 199v581q0 74 18.5 108t71.5 34q37 0 57.5 -9.5t29.5 -33t10 -65.5t1 -107v-578q0 -143 -86 -143q-33 0 -53.5 7t-31.5 28.5t-14 64.5t-3 113zM143 1116q0 12 11.5 35t33 44.5t50 36.5t61.5 15q35 0 44 -9.5t9 -25.5q0 -10 -14 -33.5t-35.5 -47t-49.5 -41t-56 -17.5 q-29 0 -41.5 15.5t-12.5 27.5z" />
<glyph unicode="&#xee;" horiz-adv-x="411" d="M-37 1090q0 18 13.5 38.5t35 41t46 43t46.5 42.5q16 16 23.5 30.5t17 26t23.5 18.5t45 7q20 0 39.5 -11t36 -26.5l33 -31t30.5 -25.5q59 -41 99.5 -74t40.5 -88q0 -18 -5.5 -33.5t-27.5 -15.5q-23 0 -49.5 21.5t-56 48t-62.5 48t-70 21.5q-41 0 -70.5 -19t-54 -44 t-47 -44.5t-49.5 -19.5q-25 0 -31 10.5t-6 35.5zM119 780q-2 74 17.5 111t72.5 37q37 0 57.5 -10.5t29.5 -35t10 -67.5t1 -108v-578q0 -143 -86 -143q-33 0 -52 6t-28.5 26.5t-12.5 62.5t-3 112z" />
<glyph unicode="&#xef;" horiz-adv-x="411" d="M-57 1141q0 25 18.5 41t46.5 16q29 0 47.5 -16t18.5 -41t-18.5 -41.5t-47.5 -16.5t-47 16.5t-18 41.5zM119 199l6 581q2 74 16.5 111t67.5 37q37 0 57.5 -10.5t29.5 -35t10 -67.5t1 -108v-578q0 -143 -86 -143q-33 0 -54.5 7t-31.5 28.5t-13 64.5t-3 113zM373 1141 q0 23 18.5 38t46.5 15q29 0 47.5 -15t18.5 -38t-18.5 -44.5t-47.5 -21.5t-47 21.5t-18 44.5z" />
<glyph unicode="&#xf0;" horiz-adv-x="1085" d="M55 457q0 59 14.5 142t55.5 159t116.5 129t198.5 53q25 0 54.5 -4t58.5 -8t55.5 -8.5t44.5 -4.5q86 0 112 34t26 120q0 14 -7.5 35.5t-50.5 21.5h-65.5h-85.5q-53 -2 -111 -2q-106 0 -106 78t94 78h426q102 0 102 -78q0 -20 -1 -136t-2 -277.5t-3 -348t-4 -352.5 q0 -47 -23.5 -68.5t-54.5 -21.5q-39 0 -65.5 6t-85.5 14q-18 4 -24.5 5.5t-12.5 1.5t-15.5 -1t-33.5 -6q4 0 -14.5 -5t-41 -11t-43 -11t-24.5 -5q10 0 3 -2t-36 -7q-12 -4 -21.5 -4h-19.5q-184 0 -297 119t-113 365zM223 453q0 -88 19.5 -161t57.5 -125t93.5 -82t124.5 -30 q25 0 74 14.5t98 58.5t86 126t37 219q0 84 -21.5 155.5t-60.5 124t-91 81t-114 24.5q-31 -2 -82 -11t-100 -49t-85 -121t-36 -224z" />
<glyph unicode="&#xf1;" horiz-adv-x="966" d="M84 100v742q0 43 29.5 66.5t64.5 23.5q27 0 47.5 -3t42 -7t45 -7.5t56.5 -3.5q31 0 60.5 7.5t63 15.5t72.5 15t88 7q74 0 122 -24.5t76 -64.5t38 -92t10 -105v-545q0 -39 -9 -62.5t-22.5 -37t-29 -18.5t-25.5 -5q-70 0 -74 88l-10 416q-2 92 -20.5 154.5t-50 99.5 t-73.5 53t-91 16q-63 0 -108.5 -27.5t-74 -73.5t-42 -105.5t-13.5 -120.5v-381q0 -59 -25.5 -89t-68.5 -30q-35 0 -56.5 24.5t-21.5 73.5zM233 1139q0 25 31 43t84 18q35 0 61.5 -6t54.5 -14.5t58.5 -14.5t75.5 -6q59 0 83 4t24 -20q0 -25 -34 -41.5t-81 -16.5 q-68 0 -128.5 20.5t-109.5 20.5q-18 0 -38.5 -3t-39 -3t-30 3t-11.5 16z" />
<glyph unicode="&#xf2;" horiz-adv-x="1091" d="M45 457q0 104 34 193t94 153.5t143 100.5t180 36q260 0 398 -122.5t138 -364.5q0 -111 -34.5 -200t-99 -152.5t-156 -97.5t-205.5 -34q-113 0 -204 35t-155.5 98.5t-98.5 153.5t-34 201zM205 487q0 -98 23.5 -178t67.5 -137t106.5 -88t138.5 -31q61 0 120.5 25.5 t105.5 77t73.5 125t27.5 168.5q0 109 -28.5 184.5t-75.5 123.5t-107.5 70.5t-126.5 22.5q-61 0 -119.5 -23.5t-104.5 -69.5t-73.5 -114t-27.5 -156zM406 1223q0 23 14 33t37 10q35 0 69.5 -17.5t61 -42t43 -52t16.5 -50.5q0 -18 -8 -27.5t-37 -9.5q-25 0 -58.5 17.5t-64 42 t-52 51t-21.5 45.5z" />
<glyph unicode="&#xf3;" horiz-adv-x="1091" d="M45 457q0 104 34 193t94 153.5t143 100.5t180 36q260 0 398 -122.5t138 -364.5q0 -111 -34.5 -200t-99 -152.5t-156 -97.5t-205.5 -34q-113 0 -204 35t-155.5 98.5t-98.5 153.5t-34 201zM205 481q0 -199 91 -313.5t245 -114.5q61 0 120.5 25.5t105.5 77t73.5 125 t27.5 168.5q0 109 -27.5 185.5t-73.5 125.5t-105.5 72.5t-124.5 23.5q-61 0 -121 -25.5t-107 -73.5t-75.5 -118t-28.5 -158zM455 1118q0 12 12 35t34.5 46.5t52.5 39.5t62 16q35 0 44.5 -12.5t9.5 -28.5q0 -10 -16.5 -32.5t-43 -45t-56.5 -39t-58 -16.5q-29 0 -35 12.5 t-6 24.5z" />
<glyph unicode="&#xf4;" horiz-adv-x="1091" d="M45 457q0 104 36 193t98.5 153.5t147.5 100.5t181 36q260 0 392 -128t132 -359q0 -111 -34.5 -200t-99 -152.5t-156 -97.5t-205.5 -34q-113 0 -204 35t-155.5 98.5t-98.5 153.5t-34 201zM217 475q0 -199 85 -307.5t239 -108.5q61 0 120.5 26t105.5 75t73.5 121.5 t27.5 167.5q0 109 -28.5 183.5t-75.5 121.5t-107.5 68.5t-126.5 21.5q-61 0 -117.5 -24.5t-100.5 -72t-69.5 -116t-25.5 -156.5zM289 1059q0 18 13 38.5t34.5 41t46.5 43t47 43.5q16 16 25.5 31.5t20.5 27.5t27.5 20.5t47.5 8.5q20 0 37.5 -12.5t32 -29t29 -32.5t28.5 -27 q59 -41 97 -84.5t42 -76.5q4 -18 -3 -34t-30 -16t-49 21.5t-56 48.5t-62.5 48.5t-69.5 21.5q-41 0 -71 -19.5t-54.5 -44t-47 -44t-48.5 -19.5q-25 0 -31 10t-6 35z" />
<glyph unicode="&#xf5;" horiz-adv-x="1091" d="M45 457q0 104 34 193t94 153.5t143 100.5t180 36q260 0 398 -122.5t138 -364.5q0 -111 -34.5 -200t-99 -152.5t-156 -97.5t-205.5 -34q-113 0 -204 35t-155.5 98.5t-98.5 153.5t-34 201zM205 481q0 -199 91 -310.5t245 -111.5q61 0 120.5 26t105.5 75t73.5 121.5 t27.5 167.5q0 109 -27.5 184.5t-73.5 123.5t-105.5 70.5t-124.5 22.5q-61 0 -121 -24.5t-107 -71.5t-75.5 -116t-28.5 -157zM262 1090q0 25 31 43t84 18q35 0 62.5 -5t56 -12.5t60.5 -12.5t77 -5q59 0 85.5 1t26.5 -23q0 -25 -39.5 -41.5t-87.5 -16.5q-68 0 -128 20.5 t-109 20.5q-18 0 -38.5 -3t-39 -3t-30 3t-11.5 16z" />
<glyph unicode="&#xf6;" horiz-adv-x="1091" d="M39 457q0 104 33.5 193t94 153.5t143.5 100.5t179 36q260 0 398.5 -122.5t138.5 -364.5q0 -111 -35 -200t-99.5 -152.5t-155.5 -97.5t-206 -34q-113 0 -203.5 35t-155.5 98.5t-98.5 153.5t-33.5 201zM199 481q0 -199 91 -310.5t245 -111.5q61 0 120.5 26t105.5 75 t73.5 121.5t27.5 167.5q0 109 -27.5 185.5t-73.5 125.5t-105.5 72.5t-125.5 23.5q-61 0 -120.5 -25.5t-106.5 -73.5t-75.5 -118t-28.5 -158zM256 1128q0 25 18.5 44.5t47.5 19.5t50 -22.5t21 -47.5t-21.5 -38t-49.5 -13q-29 0 -47.5 16.5t-18.5 40.5zM686 1128 q0 23 18.5 38.5t47.5 15.5t47 -15.5t18 -38.5t-18.5 -41t-46.5 -18q-29 0 -47.5 18.5t-18.5 40.5z" />
<glyph unicode="&#xf7;" horiz-adv-x="1011" d="M57 553q0 37 28 59.5t75 22.5h692q16 0 36.5 -4t38 -12.5t29 -21.5t11.5 -32q0 -12 -5.5 -27.5t-17.5 -27.5t-35.5 -21.5t-60.5 -9.5h-680q-37 0 -74 21.5t-37 52.5zM385 135q0 53 37 88t90 35t90 -35t37 -88t-37 -88t-90 -35t-90 35t-37 88zM385 983q0 53 37 90t90 37 t90 -37t37 -90t-37 -90t-90 -37t-90 37t-37 90z" />
<glyph unicode="&#xf8;" horiz-adv-x="1101" d="M57 459q0 111 35 196.5t99.5 145t153.5 90.5t196 31q57 0 105 -9.5t88 -21.5t68.5 -24.5t45.5 -18.5q35 -12 70.5 -14.5t48.5 -14.5q16 -16 12 -47t-4 -67q0 -20 7 -47t15.5 -59t14.5 -68.5t4 -79.5q-2 -100 -32 -185.5t-88 -147t-145 -96t-206 -34.5q-123 0 -194.5 26.5 t-121.5 46.5q-18 8 -37.5 10.5t-38 5.5t-33 8t-22.5 17q-12 18 -5 56.5t1 66.5q-10 47 -23.5 103.5t-13.5 130.5zM266 500q0 -53 29 -84t70 -31q49 0 103 30.5t99 75t75 95.5t30 90q0 47 -36 76.5t-104 29.5q-55 0 -103 -23.5t-85 -62.5t-57.5 -90t-20.5 -106zM397 221 q0 -33 14.5 -55.5t36 -35.5t47 -18.5t46.5 -5.5q55 0 103 23t85 62.5t57.5 92t20.5 109.5q0 61 -25.5 90t-72.5 29q-57 0 -112.5 -36t-99.5 -84t-72 -96t-28 -75z" />
<glyph unicode="&#xf9;" horiz-adv-x="962" d="M94 307v520q0 82 58 82q74 0 73 -86v-446q0 -23 6.5 -72t31 -98t74.5 -87t138 -38q70 0 120 24.5t82 67.5t46 101.5t14 125.5v422q0 33 7.5 50.5t18.5 25.5t23.5 9t20.5 1q35 0 48 -25.5t13 -84.5v-684q0 -90 -90 -90q-53 0 -94 7t-94 7q-23 0 -53.5 -6t-64.5 -13.5 t-68.5 -13.5t-63.5 -6q-70 0 -117 14.5t-75.5 50t-41 95t-12.5 147.5zM455 1210q0 23 17 30t40 7q35 0 68.5 -14t59.5 -35.5t41 -46t15 -47.5q0 -37 -57 -37q-25 0 -56.5 15.5t-60 38t-48 47t-19.5 42.5z" />
<glyph unicode="&#xfa;" horiz-adv-x="962" d="M94 307v520q0 82 58 82q37 0 58 -24.5t21 -67.5l-6 -440q0 -23 6.5 -72t31 -98t74.5 -87t138 -38q53 0 102.5 24.5t86 67.5t58 101.5t21.5 125.5l-6 422q0 33 7.5 50.5t17.5 25.5t23.5 9t21.5 1q35 0 48 -25.5t13 -84.5v-684q0 -90 -90 -90q-53 0 -94 10t-94 10 q-23 0 -53.5 -7t-64.5 -15.5t-68.5 -15.5t-63.5 -7q-70 0 -117 14.5t-75.5 50t-41 95t-12.5 147.5zM352 1106q0 12 12.5 34.5t35 46t52 40t62.5 16.5q35 0 44 -12.5t9 -28.5q0 -10 -16 -32.5t-43 -45t-56.5 -39t-58.5 -16.5t-35 12.5t-6 24.5z" />
<glyph unicode="&#xfb;" horiz-adv-x="962" d="M88 307v520q0 82 57 82q74 0 74 -86v-446q0 -23 6 -72t31 -98t75 -87t138 -38q59 0 107.5 24.5t83 67.5t53 101.5t18.5 125.5l-6 422q0 33 8 50.5t20.5 25.5t26 9t21.5 1q35 0 48 -25.5t13 -84.5v-684q0 -90 -90 -90q-27 0 -47 3t-40.5 7t-44.5 7t-56 3q-23 0 -53.5 -7 t-64.5 -15.5t-69 -15.5t-63 -7q-70 0 -117 14.5t-75.5 50t-41 95t-12.5 147.5zM227 1090q0 18 15.5 39.5t39 43t50 45t49.5 44.5q16 16 23.5 30.5t16.5 25.5t23.5 18t44.5 7q20 0 38 -12t32 -28.5t28.5 -33t28.5 -26.5q59 -41 99.5 -85t40.5 -77q0 -18 -5.5 -33.5 t-27.5 -15.5q-23 0 -48.5 23.5t-54 52.5t-60.5 52.5t-68 23.5q-41 0 -72 -22.5t-57.5 -49.5t-49 -48.5t-49.5 -19.5q-25 2 -31 11.5t-6 34.5z" />
<glyph unicode="&#xfc;" horiz-adv-x="962" d="M82 307v520q0 82 57 82q74 0 74 -86v-446q0 -23 6 -72t30.5 -98t75 -87t138.5 -38q59 0 107 24.5t82 67.5t53.5 101.5t19.5 125.5v422q0 33 7 50.5t18.5 25.5t23.5 9t21 1q35 0 48 -25.5t13 -84.5v-684q0 -90 -90 -90q-53 0 -94 10t-94 10q-23 0 -53.5 -7t-64.5 -15.5 t-69 -15.5t-63 -7q-70 0 -117 14.5t-76 50t-41 95t-12 147.5zM207 1116q0 25 18.5 41.5t46.5 16.5q29 0 47.5 -16.5t18.5 -41.5t-18.5 -41t-47.5 -16t-47 16.5t-18 40.5zM631 1116q0 23 21.5 38t49.5 15q29 0 47.5 -15t18.5 -38t-24.5 -41t-53.5 -18t-44 18.5t-15 40.5z" />
<glyph unicode="&#xfd;" horiz-adv-x="854" d="M28 888q3 19 15 31.5t28.5 16.5t30.5 4q37 0 58.5 -12.5t33 -30.5t16.5 -36.5t7 -31.5l66 -286q23 -96 50 -154.5t89 -58.5q8 0 24.5 3t37 18.5t40 45t33.5 80.5q10 41 18.5 78t16.5 77t19.5 89t27.5 117q27 102 119 102q37 0 63.5 -22.5t9.5 -71.5l-323 -983 q-16 -49 -40 -92t-58.5 -76t-82.5 -51.5t-114 -18.5q-55 0 -91 13.5t-36 44.5q0 23 15.5 38t36 26t42 18.5t33.5 15.5q59 41 74.5 86t11.5 61q4 31 -7 82t-34 123l-225 705q-8 31 -5 50zM354 928q0 12 11.5 34.5t33 44t50 37t61.5 15.5q35 0 44 -12.5t9 -28.5 q0 -10 -15.5 -31.5t-40 -43t-54 -37t-58.5 -15.5t-35 12t-6 25z" />
<glyph unicode="&#xfe;" horiz-adv-x="1024" d="M86 -229v1347q0 80 19.5 103.5t62.5 23.5q31 0 50.5 -23.5t19.5 -54.5q0 -45 2 -74.5t7 -51t13 -38t19 -32.5q14 -18 48.5 -25.5t80 -9.5t94.5 0t88 2q72 0 140.5 -27.5t122.5 -84t88 -140.5t34 -199q0 -248 -92 -382t-281 -134q-12 0 -36.5 3t-51.5 7.5t-51.5 7.5 t-36.5 3q-92 0 -147 -74q-10 -16 -18.5 -32.5t-13.5 -38t-7 -51t-2 -75.5q0 -31 -19.5 -54t-50.5 -23q-43 0 -62.5 23.5t-19.5 103.5zM238 446q0 -82 22.5 -154.5t60 -126.5t90 -85t109.5 -31q147 0 231.5 109.5t84.5 308.5q0 82 -20.5 152.5t-59.5 123t-93.5 83 t-121.5 30.5q-106 0 -168 -54t-91.5 -125t-36.5 -137.5t-7 -93.5z" />
<glyph unicode="&#xff;" horiz-adv-x="854" d="M20 869.5q3 19.5 15 31.5t28.5 16.5t30.5 4.5q37 0 58.5 -12.5t33 -31t16.5 -37t7 -30.5l65 -287q23 -96 50.5 -154.5t89.5 -58.5q8 0 24.5 3t37 18.5t40 45.5t33.5 81q10 41 18 77.5t16.5 76.5t19.5 89.5t28 116.5q27 102 119 103q37 0 63.5 -22.5t9.5 -72.5l-323 -983 q-16 -49 -40 -92t-58.5 -75.5t-83 -51t-113.5 -18.5q-55 0 -91 13t-36 44q0 23 15.5 38t36 26.5t42 18.5t33.5 15q59 41 74.5 86.5t11.5 61.5q4 31 -7.5 82t-33.5 123l-225 704q-8 31 -5 50.5zM156 1126q0 25 18.5 41.5t46.5 16.5q29 0 44.5 -16.5t15.5 -41.5q0 -51 -60 -51 q-29 0 -47 13.5t-18 37.5zM586 1126q0 23 18.5 38.5t46.5 15.5q29 0 47.5 -15.5t18.5 -38.5t-18.5 -38t-47.5 -15t-47 15.5t-18 37.5z" />
<glyph unicode="&#x152;" horiz-adv-x="2056" d="M98 604q0 158 43 282t119 210t179.5 131t224.5 45q43 0 77.5 -4t65.5 -8.5t60.5 -8.5t62.5 -4q53 0 96 6.5t117 6.5h717q31 0 60.5 -6.5t29.5 -34.5q0 -31 -20.5 -42.5t-61.5 -11.5h-320q-141 0 -220 -54t-79 -146q0 -250 299 -250h287h15.5t23.5 -3t21.5 -12.5 t9.5 -25.5q0 -29 -19.5 -41t-50.5 -12h-287q-307 0 -307 -267q0 -266 307 -266h394q18 0 43.5 -7t25.5 -42q0 -25 -25.5 -35t-56.5 -10h-729q-90 0 -152.5 4t-105.5 4q-45 0 -70.5 -3t-47 -6t-47 -5t-72.5 -2q-135 0 -247 38.5t-192 116.5t-124 194t-44 269zM283 637 q0 -117 31.5 -217.5t92 -174t146.5 -115.5t192 -42q117 0 180.5 37t94.5 98.5t36 142t5 169.5v286q0 174 -80 261t-227 87q-115 0 -203 -44t-147.5 -117.5t-90 -170t-30.5 -200.5z" />
<glyph unicode="&#x153;" horiz-adv-x="1744" d="M82 459q0 150 48 245t117.5 150t148.5 75.5t141 20.5q59 0 108 -14t92 -30.5t85 -31t87 -14.5t86 13.5t84 30t90.5 29.5t104.5 13q111 0 191.5 -39t134 -97t79 -125t25.5 -124q0 -47 -22.5 -70.5t-100.5 -23.5l-254 8q-129 0 -210 -37t-81 -135q0 -51 25.5 -94t66.5 -74 t91.5 -48t99.5 -17q61 0 100 15t66.5 33.5t51.5 34t56 15.5q23 0 34 -12.5t11 -28.5q0 -18 -25.5 -46t-71.5 -52.5t-108.5 -43t-138.5 -18.5t-129 15.5t-93 34t-75.5 34t-78.5 15.5q-45 0 -83 -15.5t-80 -34t-95.5 -34t-131.5 -15.5q-211 0 -328.5 122t-117.5 370zM246 455 q0 -102 28.5 -176t71.5 -121t93 -69.5t93 -22.5q66 0 122.5 27.5t96.5 79.5t62.5 125t22.5 161q0 176 -76 275.5t-203 105.5q-51 4 -106.5 -17.5t-101.5 -68.5t-74.5 -122t-28.5 -177zM1044 668q0 -78 62.5 -121t159.5 -43q98 0 163.5 41t65.5 102q0 41 -15.5 78t-45 64.5 t-70.5 45t-94 17.5q-49 0 -90 -16.5t-72 -42t-47.5 -58t-16.5 -67.5z" />
<glyph unicode="&#x178;" horiz-adv-x="1210" d="M16 1231q-2 29 13.5 44t43 19t50.5 4q66 0 103.5 -14t68.5 -47t61.5 -87t81.5 -134q35 -55 76 -91t84 -36t82 32.5t70 82.5l127 196q43 66 91 80t113 14q47 0 73 -8t26 -45q0 -25 -9.5 -44t-40.5 -62l-290 -410q-23 -31 -44.5 -71t-37.5 -89q-10 -35 -15.5 -74.5 t-5.5 -68.5l-4 -361q0 -18 -6 -39.5t-21.5 -40t-40 -30.5t-63.5 -12q-72 0 -103.5 31.5t-31.5 90.5v332q0 90 -22.5 166t-51.5 117l-340 475q-35 51 -37 80zM322 1507q0 25 18 41.5t47 16.5t47.5 -16.5t18.5 -41.5t-18.5 -41t-47.5 -16t-47 16.5t-18 40.5zM752 1507 q0 23 18 38.5t47 15.5t47.5 -15.5t18.5 -38.5t-18.5 -38t-47.5 -15t-47 15.5t-18 37.5z" />
<glyph unicode="&#x2c6;" horiz-adv-x="831" d="M152 973q0 18 13 38.5t34.5 41t46 43t47.5 43.5q16 16 25.5 31.5t20.5 27.5t27.5 20.5t47.5 8.5q20 0 35.5 -11.5t27.5 -26.5t24.5 -30.5t26.5 -25.5q59 -41 105.5 -77t46.5 -91q0 -18 -5 -34t-28 -16t-49.5 21.5t-56 48.5t-62.5 48.5t-69 21.5q-41 0 -71 -19.5 t-54.5 -44t-47 -44t-49.5 -19.5q-25 0 -30.5 10t-5.5 35z" />
<glyph unicode="&#x2dc;" horiz-adv-x="585" d="M94 1329q0 25 31 43.5t84 18.5q35 0 61.5 -6.5t54 -14.5t58.5 -14t76 -6q59 0 82.5 4t23.5 -21t-33.5 -41t-80.5 -16q-68 0 -128.5 20.5t-109.5 20.5q-18 0 -38.5 -3t-39 -3t-30 3t-11.5 15z" />
<glyph unicode="&#x2000;" horiz-adv-x="844" />
<glyph unicode="&#x2001;" horiz-adv-x="1688" />
<glyph unicode="&#x2002;" horiz-adv-x="844" />
<glyph unicode="&#x2003;" horiz-adv-x="1688" />
<glyph unicode="&#x2004;" horiz-adv-x="562" />
<glyph unicode="&#x2005;" horiz-adv-x="422" />
<glyph unicode="&#x2006;" horiz-adv-x="281" />
<glyph unicode="&#x2007;" horiz-adv-x="281" />
<glyph unicode="&#x2008;" horiz-adv-x="211" />
<glyph unicode="&#x2009;" horiz-adv-x="337" />
<glyph unicode="&#x200a;" horiz-adv-x="93" />
<glyph unicode="&#x2010;" horiz-adv-x="503" d="M86 575q0 78 94 78h156q102 0 102 -78q0 -43 -28.5 -60t-81.5 -17h-135q-106 0 -107 77z" />
<glyph unicode="&#x2011;" horiz-adv-x="503" d="M86 575q0 78 94 78h156q102 0 102 -78q0 -43 -28.5 -60t-81.5 -17h-135q-106 0 -107 77z" />
<glyph unicode="&#x2012;" horiz-adv-x="503" d="M86 575q0 78 94 78h156q102 0 102 -78q0 -43 -28.5 -60t-81.5 -17h-135q-106 0 -107 77z" />
<glyph unicode="&#x2013;" horiz-adv-x="974" d="M45 575q0 78 94 78h684q102 0 103 -78q0 -43 -29 -60t-82 -17h-663q-106 0 -107 77z" />
<glyph unicode="&#x2014;" horiz-adv-x="2048" d="M45 575q0 78 94 78h1749q102 0 103 -78q0 -43 -29 -60t-82 -17h-1728q-106 0 -107 77z" />
<glyph unicode="&#x2018;" horiz-adv-x="323" d="M74 1096v98q0 66 16 115t36.5 76.5t37 33.5t16.5 -12q0 -16 -4 -33.5t-4 -48.5q0 -41 14.5 -71.5t30.5 -58.5t30.5 -57.5t14.5 -70.5q0 -53 -24.5 -75.5t-65.5 -22.5q-53 0 -75.5 29.5t-22.5 97.5z" />
<glyph unicode="&#x2019;" horiz-adv-x="323" d="M59 1319q0 53 27 77.5t68 24.5q53 0 75.5 -29.5t22.5 -97.5v-102q0 -70 -17.5 -121t-39 -79.5t-40 -33t-18.5 16.5q0 25 6.5 40t6.5 46q0 41 -14.5 68.5t-31 54t-31 57.5t-14.5 78z" />
<glyph unicode="&#x201a;" horiz-adv-x="344" d="M57 131q0 53 24.5 75.5t65.5 22.5q53 0 74 -27.5t21 -95.5v-102q0 -66 -16.5 -113t-35 -73.5t-35 -31.5t-16.5 13q0 10 6.5 30.5t6.5 43.5q0 41 -14.5 71.5t-33 58.5t-33 58.5t-14.5 69.5z" />
<glyph unicode="&#x201c;" horiz-adv-x="831" d="M80 1077v103q0 72 20.5 123t45 81.5t45 36.5t20.5 -16q0 -18 -8 -42.5t-8 -59.5q0 -43 13 -71t29.5 -53.5t30 -56t13.5 -78.5q0 -55 -27 -78.5t-68 -23.5q-55 0 -80.5 32t-25.5 103zM559 1077v103q0 72 20.5 123t45 81.5t45 36.5t20.5 -16q0 -18 -8 -42.5t-8 -59.5 q0 -43 13 -71t29.5 -53.5t30 -56t13.5 -78.5q0 -55 -26.5 -78.5t-67.5 -23.5q-55 0 -81 32t-26 103z" />
<glyph unicode="&#x201d;" horiz-adv-x="831" d="M70 1319q0 53 26.5 77.5t67.5 24.5q53 0 75.5 -29.5t22.5 -97.5v-102q0 -70 -17.5 -121t-39 -79.5t-40 -33t-18.5 16.5q0 25 6.5 40t6.5 46q0 41 -14.5 68.5t-31 54t-30.5 57.5t-14 78zM553 1319q0 53 26.5 77.5t63.5 24.5q102 0 102 -131v-94q0 -70 -18 -121 t-40.5 -79.5t-41 -34t-18.5 17.5q0 18 6 38.5t6 51.5q0 41 -13.5 67.5t-29.5 51t-29.5 54.5t-13.5 77z" />
<glyph unicode="&#x201e;" horiz-adv-x="835" d="M102 164q0 53 27 77.5t68 24.5q53 0 75.5 -29.5t22.5 -97.5v-102q0 -72 -17.5 -122t-39 -79t-40 -34t-18.5 18q0 25 6.5 40t6.5 46q0 41 -14.5 68.5t-31 54t-31 57.5t-14.5 78zM586 160q0 53 26.5 77.5t63.5 24.5q102 0 102 -131v-94q0 -70 -18.5 -121t-41 -80t-41 -34 t-18.5 18q0 18 6.5 38.5t6.5 51.5q0 41 -13.5 67.5t-30 51t-29.5 54.5t-13 77z" />
<glyph unicode="&#x2022;" horiz-adv-x="473" d="M25 672q0 41 15 77.5t43 64.5t64.5 45.5t81.5 17.5q90 0 151.5 -54.5t61.5 -158.5q0 -39 -14 -77t-41 -65.5t-65.5 -45t-88.5 -17.5q-92 0 -150 60.5t-58 152.5z" />
<glyph unicode="&#x2026;" horiz-adv-x="1699" d="M82 135q0 123 111 123q66 0 94 -31t28 -92q0 -123 -118 -123q-115 0 -115 123zM758 135q0 61 28.5 92t81.5 31q66 0 94.5 -31t28.5 -92q0 -123 -119 -123q-115 0 -114 123zM1434 135q0 123 114 123q119 0 119 -123t-119 -123q-115 0 -114 123z" />
<glyph unicode="&#x202f;" horiz-adv-x="337" />
<glyph unicode="&#x2039;" horiz-adv-x="290" d="M57 500q0 43 16.5 78.5t39 60.5t45 39t35.5 14q12 0 22 -9.5t10 -27.5q0 -31 -16 -65.5t-16 -89.5q0 -49 16 -85t16 -71q0 -12 -3 -22.5t-25 -10.5q-10 0 -34 11.5t-47.5 35t-41 59.5t-17.5 83z" />
<glyph unicode="&#x203a;" horiz-adv-x="290" d="M70 340q0 31 18 73t18 83q0 49 -18 83.5t-18 71.5t28 37q16 0 40 -14.5t45.5 -40t35.5 -59t14 -74.5q0 -51 -17 -88t-38.5 -60.5t-43 -34t-32.5 -10.5q-33 0 -32 33z" />
<glyph unicode="&#x205f;" horiz-adv-x="422" />
<glyph unicode="&#x2122;" horiz-adv-x="1691" d="M33 1094q-10 10 4 19t69 9h226q35 0 60.5 -8t8.5 -20q-45 -37 -72.5 -65t-42 -60.5t-18.5 -78.5t-6 -120l-4 -233q0 -29 -11 -47.5t-34 -18.5t-30 21.5t-7 44.5l-4 233q-2 68 -6 112t-18.5 77.5t-41 64.5t-73.5 70zM791 557v410v51t8 49t28.5 37t61.5 14q35 0 68.5 -20.5 t50.5 -61.5q31 -78 54 -129t45.5 -81.5t48.5 -43t61 -12.5t75.5 29.5t59.5 77.5l61 147q23 53 52.5 71.5t66.5 18.5t58.5 -6t31.5 -33.5t13 -84t3 -154.5v-166t-3 -106t-10 -56t-19 -16q-16 0 -22.5 11t-10.5 42q-6 115 -41 155.5t-82 40.5q-80 0 -123 -90l-37 -90 q-4 -8 -10 -23.5t-15.5 -28.5t-21.5 -23.5t-31 -10.5q-37 0 -48 23.5t-17 42.5l-33 82q-23 53 -60.5 87.5t-78.5 34.5q-33 0 -56.5 -18t-37 -43t-19.5 -51.5t-6 -42.5q0 -35 -6 -66.5t-31 -31.5q-29 0 -28 65z" />
<glyph unicode="&#x25fc;" horiz-adv-x="921" d="M0 0v922h922v-922h-922z" />
<glyph unicode="&#xfb01;" horiz-adv-x="946" d="M55 891q0 16 5.5 25.5t14.5 18.5t23.5 21.5t30.5 32.5q8 10 14.5 21.5t15.5 33t23.5 57.5t36.5 97q8 20 22.5 43t40 42.5t66.5 31.5t101 12q68 0 93 -18.5t25 -53.5q0 -14 -1 -21t-7 -15.5t-22.5 -20.5t-47.5 -37q-6 -4 -14 -17.5t-14 -28.5t-11.5 -30.5t-5.5 -25.5 q0 -31 21 -66q4 -8 17.5 -19t26.5 -23.5t23.5 -27t10.5 -28.5t-5.5 -21.5t-14.5 -14.5t-23.5 -17.5t-34.5 -28.5q-25 -23 -51.5 -69t-26.5 -107v-422q0 -70 -4 -114t-14.5 -67.5t-30 -31.5t-49.5 -8q-31 0 -50.5 8t-29.5 31.5t-14.5 67.5t-4.5 114l-4 414q0 68 -16 102.5 t-41 69.5q-18 25 -46 45t-28 45zM588 260v522q0 92 23.5 138.5t88.5 46.5q47 0 72 -12.5t36 -43t13 -84t2 -137.5v-516q0 -180 -108 -180q-43 0 -67.5 8t-38 36t-17.5 81t-4 141z" />
<glyph unicode="&#xfb02;" horiz-adv-x="925" d="M55 891q0 16 5.5 25.5t14.5 18.5t23.5 21.5t30.5 32.5q8 10 14.5 21.5t15.5 33t23.5 57.5t36.5 97q8 20 22.5 43t40 42.5t66.5 31.5t101 12q68 0 93 -18.5t25 -53.5q0 -14 -1 -21t-7 -15.5t-22.5 -20.5t-47.5 -37q-6 -4 -14 -17.5t-14 -28.5t-11.5 -30.5t-5.5 -25.5 q0 -31 21 -66q4 -8 17.5 -19t26.5 -23.5t23.5 -27t10.5 -28.5t-5.5 -21.5t-14.5 -14.5t-23.5 -17.5t-34.5 -28.5q-25 -23 -51.5 -69t-26.5 -107v-422q0 -70 -4 -114t-14.5 -67.5t-30 -31.5t-49.5 -8q-31 0 -50.5 8t-29.5 31.5t-14.5 67.5t-4.5 114l-4 414q0 68 -16 102.5 t-41 69.5q-18 25 -46 45t-28 45zM588 260l6 981q4 25 12 57.5t20.5 60t31 47t42.5 19.5q47 0 72 -12t36 -43t13 -84t2 -137v-975q0 -180 -108 -180q-43 0 -67.5 8t-38 36t-17.5 81t-4 141z" />
</font>
</defs>
</svg>
